<?xml version="1.0" encoding="UTF-8" standalone="no"?>
<svg
   xmlns:dc="http://purl.org/dc/elements/1.1/"
   xmlns:cc="http://creativecommons.org/ns#"
   xmlns:rdf="http://www.w3.org/1999/02/22-rdf-syntax-ns#"
   xmlns:svg="http://www.w3.org/2000/svg"
   xmlns="http://www.w3.org/2000/svg"
   xmlns:sodipodi="http://sodipodi.sourceforge.net/DTD/sodipodi-0.dtd"
   xmlns:inkscape="http://www.inkscape.org/namespaces/inkscape"
   viewBox="0 0 48 48"
   id="svg2"
   version="1.1"
   inkscape:version="0.91 r13725"
   sodipodi:docname="arrow_right.svg">
  <metadata
     id="metadata61">
    <rdf:RDF>
      <cc:Work
         rdf:about="">
        <dc:format>image/svg+xml</dc:format>
        <dc:type
           rdf:resource="http://purl.org/dc/dcmitype/StillImage" />
        <dc:title></dc:title>
      </cc:Work>
    </rdf:RDF>
  </metadata>
  <sodipodi:namedview
     pagecolor="#ffffff"
     bordercolor="#3861aa"
     borderopacity="1"
     objecttolerance="10"
     gridtolerance="10"
     guidetolerance="10"
     inkscape:pageopacity="0"
     inkscape:pageshadow="2"
     inkscape:window-width="2491"
     inkscape:window-height="1416"
     id="namedview59"
     showgrid="false"
     inkscape:zoom="6.9532167"
     inkscape:cx="25.764238"
     inkscape:cy="20.679802"
     inkscape:window-x="69"
     inkscape:window-y="24"
     inkscape:window-maximized="1"
     inkscape:current-layer="svg2" />
  <defs
     id="defs4">
    <linearGradient
       id="linearGradient3764"
       x1="1"
       x2="47"
       gradientUnits="userSpaceOnUse"
       gradientTransform="matrix(0,-1,1,0,-1.5e-6,47.999998)">
      <stop
         stop-color="#3861aa"
         stop-opacity="1"
         id="stop7" />
      <stop
         offset="1"
         stop-color="#3861aa"
         stop-opacity="1"
         id="stop9" />
    </linearGradient>
    <clipPath
       id="clipPath-823937765">
      <g
         transform="translate(0,-1004.3622)"
         id="g12">
        <path
           d="m -24 13 c 0 1.105 -0.672 2 -1.5 2 -0.828 0 -1.5 -0.895 -1.5 -2 0 -1.105 0.672 -2 1.5 -2 0.828 0 1.5 0.895 1.5 2 z"
           transform="matrix(15.333333,0,0,11.5,414.99999,878.8622)"
           fill="#3861aa"
           id="path14" />
      </g>
    </clipPath>
    <clipPath
       id="clipPath-832541835">
      <g
         transform="translate(0,-1004.3622)"
         id="g17">
        <path
           d="m -24 13 c 0 1.105 -0.672 2 -1.5 2 -0.828 0 -1.5 -0.895 -1.5 -2 0 -1.105 0.672 -2 1.5 -2 0.828 0 1.5 0.895 1.5 2 z"
           transform="matrix(15.333333,0,0,11.5,414.99999,878.8622)"
           fill="#3861aa"
           id="path19" />
      </g>
    </clipPath>
  </defs>
  <g
     id="g29"
     style="fill:#ffffff;fill-opacity:1">
    <path
       d="m 24 1 c 12.703 0 23 10.297 23 23 c 0 12.703 -10.297 23 -23 23 -12.703 0 -23 -10.297 -23 -23 0 -12.703 10.297 -23 23 -23 z"
       fill="url(#linearGradient3764)"
       fill-opacity="1"
       id="path31"
       style="fill:#ffffff;fill-opacity:1" />
  </g>
  <g
     id="g33" />
  <g
     id="g3352"
     transform="matrix(0.00206551,0,0,-0.00206551,0.51505418,47.473139)"
     style="fill:#3861aa;stroke:none">
    <path
       id="path3354"
       d="m 11085,22344 c -218,-7 -521,-26 -728,-45 C 7472,22035 4796,20629 2946,18406 2143,17441 1528,16380 1090,15205 755,14306 538,13350 451,12393 c -35,-376 -44,-595 -44,-1003 0,-408 9,-627 44,-1003 C 714,7505 2121,4826 4344,2976 5309,2173 6370,1558 7545,1120 8444,785 9400,568 10357,481 c 376,-35 595,-44 1003,-44 408,0 627,9 1003,44 2882,263 5561,1670 7411,3893 803,965 1418,2026 1856,3201 335,899 552,1855 639,2812 35,376 44,595 44,1003 0,408 -9,627 -44,1003 -263,2882 -1670,5561 -3893,7411 -329,273 -593,470 -946,705 -1632,1086 -3502,1709 -5465,1820 -197,11 -721,20 -880,15 z M 9125,21144 c 23,-10 40,-30 54,-60 36,-76 73,-196 67,-219 -15,-58 -79,-107 -194,-149 -40,-14 -115,-44 -167,-66 -52,-22 -128,-52 -167,-66 -40,-15 -113,-47 -163,-72 -49,-24 -130,-59 -180,-77 -49,-19 -116,-45 -149,-60 -32,-14 -95,-39 -140,-54 -44,-16 -133,-54 -196,-84 -63,-30 -133,-60 -155,-67 -22,-7 -87,-33 -145,-58 -58,-24 -134,-55 -170,-67 -36,-12 -94,-36 -130,-53 -36,-17 -83,-36 -105,-42 -22,-7 -110,-45 -195,-85 -85,-40 -173,-78 -195,-85 -22,-7 -87,-33 -145,-58 -58,-24 -134,-55 -170,-67 -36,-13 -91,-35 -123,-49 -124,-56 -176,-28 -232,122 -19,51 -35,104 -35,118 0,43 31,82 85,108 169,83 343,157 660,281 61,24 142,57 182,74 40,17 105,43 145,57 40,15 120,49 178,76 58,27 143,63 190,80 47,17 105,40 130,53 25,13 83,36 130,53 47,17 132,53 190,81 96,46 179,79 435,177 50,19 155,66 235,103 80,38 170,77 200,86 30,10 69,25 85,33 39,20 126,51 143,52 8,0 29,-7 47,-16 z m 4699,-68 c 55,-19 130,-47 166,-64 75,-34 236,-99 365,-148 50,-19 140,-57 200,-86 105,-48 227,-99 472,-193 61,-24 160,-67 220,-95 59,-29 137,-62 173,-75 36,-12 99,-37 140,-55 41,-17 113,-45 160,-62 47,-17 128,-52 180,-78 52,-26 127,-59 165,-73 39,-13 124,-47 190,-74 66,-28 152,-62 191,-77 88,-33 188,-93 211,-125 29,-42 21,-108 -23,-191 -75,-144 -159,-153 -382,-41 -53,27 -135,62 -182,79 -47,17 -114,43 -150,59 -36,17 -83,36 -105,43 -22,7 -101,38 -175,70 -74,32 -147,62 -162,65 -15,4 -82,34 -148,66 -66,32 -159,72 -205,88 -46,17 -101,39 -122,49 -21,11 -78,34 -126,51 -49,17 -146,58 -215,90 -70,32 -145,64 -167,71 -22,7 -80,31 -130,52 -49,22 -128,53 -175,70 -47,17 -128,52 -181,78 -52,27 -136,62 -185,80 -49,17 -129,52 -179,78 -142,75 -162,123 -101,247 73,147 106,159 280,101 z m -350,-676 c 22,-5 51,-20 65,-35 23,-23 26,-35 30,-112 4,-103 -10,-157 -46,-181 -26,-16 -148,-17 -2168,-17 -2029,0 -2142,1 -2172,18 -47,25 -65,58 -71,132 -5,69 14,141 44,166 46,38 44,38 2194,38 1213,0 2101,-3 2124,-9 z m -5301,-514 c 73,-31 158,-96 200,-155 18,-25 51,-89 72,-141 21,-52 57,-133 80,-180 23,-47 50,-110 60,-140 10,-30 37,-98 60,-150 23,-52 50,-120 60,-150 10,-30 42,-107 72,-170 51,-106 88,-196 180,-435 19,-49 52,-130 73,-180 21,-49 51,-124 66,-165 14,-41 46,-115 71,-163 24,-49 56,-121 70,-160 14,-40 45,-117 68,-172 24,-55 47,-113 51,-130 3,-16 35,-91 69,-165 35,-74 81,-182 103,-240 45,-117 102,-259 134,-335 11,-27 44,-111 73,-185 29,-74 73,-175 97,-225 25,-49 62,-142 83,-205 34,-106 36,-123 33,-210 -3,-84 -7,-104 -35,-160 -48,-98 -111,-163 -196,-205 -94,-46 -187,-69 -244,-60 -67,10 -234,97 -277,145 -39,44 -127,212 -150,289 -8,25 -28,78 -46,116 -18,39 -45,108 -62,155 -17,47 -52,128 -78,180 -26,52 -61,133 -78,180 -16,47 -46,121 -65,165 -20,44 -48,114 -63,155 -14,41 -48,118 -74,170 -26,52 -61,133 -78,180 -16,47 -42,112 -57,145 -15,33 -40,98 -57,145 -17,47 -39,103 -50,124 -11,22 -35,80 -53,130 -18,50 -58,143 -88,206 -30,63 -62,140 -72,170 -9,30 -33,91 -52,135 -19,44 -46,112 -60,150 -14,39 -51,126 -83,195 -33,69 -75,166 -93,215 -19,50 -48,124 -65,165 -146,352 -192,487 -192,567 0,157 128,329 297,399 82,33 214,33 296,0 z m 6738,-23 c 65,-32 99,-56 141,-102 82,-88 102,-135 106,-256 4,-87 1,-109 -21,-170 -39,-109 -94,-250 -147,-375 -26,-63 -54,-133 -60,-155 -7,-22 -23,-60 -35,-85 -13,-25 -37,-85 -54,-133 -17,-49 -56,-141 -87,-205 -31,-64 -69,-155 -86,-202 -17,-47 -38,-101 -48,-120 -10,-19 -34,-82 -55,-140 -21,-58 -58,-145 -83,-195 -25,-49 -62,-135 -82,-190 -21,-55 -53,-138 -72,-185 -78,-191 -102,-249 -134,-335 -19,-49 -62,-148 -96,-219 -33,-71 -70,-159 -83,-195 -12,-37 -38,-103 -57,-146 -19,-44 -41,-98 -48,-120 -7,-22 -43,-105 -80,-185 -37,-80 -73,-163 -80,-185 -7,-22 -24,-65 -38,-95 -13,-30 -40,-92 -58,-137 -50,-124 -68,-154 -121,-204 -57,-55 -80,-68 -193,-104 -113,-36 -154,-31 -290,37 -172,85 -254,191 -267,345 -8,95 8,158 77,303 33,69 75,166 94,215 56,150 115,296 147,370 17,39 44,108 61,155 17,47 52,128 78,180 26,52 61,133 78,180 17,47 45,119 62,160 18,41 43,105 55,141 13,36 50,124 83,195 34,71 77,170 96,219 91,239 128,329 176,430 28,61 65,148 82,195 17,47 40,105 53,130 13,25 36,83 53,130 17,47 42,112 57,145 15,33 41,98 57,145 17,47 52,128 78,180 26,52 62,136 80,185 48,132 126,279 175,329 40,41 116,88 175,107 14,5 70,7 125,6 95,-2 105,-5 186,-44 z m 1329,-549 c 27,-18 1068,-1054 2290,-2279 503,-504 751,-759 755,-777 4,-16 4,-40 1,-54 -8,-31 -118,-149 -158,-170 -35,-18 -92,-18 -126,0 -33,18 -2995,2982 -3011,3013 -32,63 -4,130 90,219 72,68 111,80 159,48 z m -9695,-13 c 56,-25 172,-151 180,-195 15,-79 60,-32 -1497,-1589 -805,-805 -1475,-1471 -1490,-1481 -41,-27 -92,-35 -139,-23 -54,13 -161,112 -183,168 -35,87 -71,45 762,883 416,419 1090,1093 1498,1498 818,813 779,780 869,739 z m 6304,-1264 c 54,-27 65,-59 65,-175 0,-133 -17,-175 -78,-203 -39,-18 -101,-19 -1496,-19 -1395,0 -1457,1 -1496,19 -59,27 -77,70 -77,186 0,116 18,159 77,186 39,18 102,19 1511,19 1147,0 1475,-3 1494,-13 z m -5158,-805 c 50,-33 120,-105 143,-150 25,-48 20,-93 -13,-138 -35,-47 -2025,-2034 -2061,-2058 -54,-35 -119,-16 -202,62 -52,49 -85,95 -98,140 -19,68 -22,64 1038,1124 554,553 1023,1016 1042,1027 49,29 97,27 151,-7 z m 7437,13 c 26,-11 338,-317 1064,-1043 912,-913 1027,-1031 1033,-1064 10,-55 1,-79 -52,-139 -109,-120 -167,-137 -250,-70 -56,45 -2019,2012 -2052,2055 -51,69 -3,169 118,247 51,33 85,36 139,14 z M 3037,16688 c 74,-27 115,-58 137,-101 17,-36 17,-42 2,-108 -9,-39 -47,-137 -85,-217 -37,-81 -74,-165 -81,-187 -7,-22 -33,-87 -58,-145 -24,-58 -55,-134 -67,-170 -12,-36 -48,-119 -80,-185 -67,-139 -67,-139 -99,-225 -26,-70 -78,-200 -128,-320 -17,-41 -46,-115 -65,-165 -19,-49 -61,-148 -93,-220 -33,-71 -75,-170 -94,-220 -92,-241 -129,-332 -176,-432 -29,-59 -65,-146 -82,-193 -78,-219 -122,-261 -242,-233 -122,28 -191,72 -201,127 -8,39 32,167 91,297 24,53 44,102 44,109 0,7 18,53 41,104 22,50 55,132 74,181 18,50 53,131 77,180 25,50 57,123 72,163 14,39 44,115 66,167 22,52 52,128 66,167 15,40 48,116 74,168 26,52 64,142 85,200 21,58 45,121 55,140 10,19 31,73 48,120 17,47 53,134 82,193 28,60 71,160 96,223 144,372 218,550 237,573 36,43 104,47 204,9 z m 16808,-42 c 44,-19 84,-81 125,-195 17,-47 49,-126 70,-176 21,-49 54,-130 73,-180 92,-239 129,-329 180,-435 30,-63 64,-146 77,-185 13,-38 37,-101 55,-140 18,-38 40,-95 50,-125 9,-30 44,-111 77,-180 33,-69 75,-165 93,-215 42,-112 116,-298 156,-390 17,-38 44,-107 60,-153 17,-46 54,-132 83,-190 73,-149 148,-348 154,-405 4,-46 2,-50 -40,-91 -31,-29 -64,-48 -111,-64 -122,-40 -188,-24 -217,50 -7,18 -48,110 -90,203 -43,94 -85,195 -95,225 -10,30 -28,75 -40,100 -13,25 -36,83 -53,130 -17,47 -56,138 -86,202 -31,65 -71,159 -90,210 -18,51 -47,127 -64,168 -51,123 -101,249 -142,355 -20,55 -62,152 -93,215 -30,63 -61,133 -67,154 -7,22 -33,85 -57,140 -25,56 -59,139 -75,186 -17,47 -52,128 -78,180 -26,52 -61,133 -78,180 -17,47 -42,111 -56,143 -34,75 -34,135 -2,175 27,31 126,88 190,108 53,16 51,16 91,0 z m -7488,-592 c 48,-35 63,-78 63,-182 0,-105 -14,-149 -58,-179 -26,-17 -80,-18 -1002,-21 -935,-2 -976,-2 -1010,16 -50,27 -82,89 -88,172 -2,38 -2,84 2,104 9,46 49,93 89,105 19,6 431,9 1004,8 966,-2 972,-2 1000,-23 z m -3476,-715 c 23,-18 59,-55 80,-82 51,-64 54,-118 10,-180 -35,-49 -1291,-1304 -1338,-1336 -72,-49 -166,-14 -233,87 -29,42 -31,53 -28,108 3,54 9,68 45,115 57,74 1269,1282 1313,1309 47,28 97,22 151,-21 z m 5080,12 c 24,-17 344,-331 710,-698 706,-708 699,-700 685,-778 -7,-37 -74,-118 -117,-140 -36,-19 -92,-19 -127,-1 -33,18 -1375,1362 -1391,1393 -27,54 -5,126 61,193 65,68 111,76 179,31 z M 3453,15124 c 78,-25 207,-76 287,-114 80,-37 170,-76 200,-85 30,-10 84,-31 120,-48 36,-16 103,-42 150,-59 47,-17 103,-39 124,-50 22,-11 80,-35 130,-53 50,-18 141,-56 201,-85 61,-28 146,-64 190,-80 44,-15 107,-40 140,-55 33,-15 92,-38 130,-52 39,-13 126,-51 195,-83 69,-33 166,-75 215,-93 50,-19 124,-48 165,-65 123,-51 249,-101 355,-142 55,-21 152,-63 215,-93 63,-30 140,-62 170,-72 30,-10 97,-37 150,-60 52,-23 120,-50 150,-60 30,-10 145,-63 254,-118 225,-112 270,-148 304,-239 28,-74 37,-187 22,-267 -21,-119 -104,-243 -196,-297 -55,-32 -183,-74 -227,-74 -34,0 -202,56 -327,108 -131,55 -252,103 -345,139 -49,18 -146,60 -215,93 -69,32 -156,69 -195,83 -38,14 -97,37 -130,52 -33,15 -97,40 -142,56 -45,16 -126,50 -180,75 -54,26 -147,66 -208,89 -123,48 -252,100 -365,147 -41,17 -121,48 -176,69 -56,21 -142,58 -190,82 -49,24 -122,56 -162,71 -39,14 -115,44 -167,66 -52,22 -128,52 -167,66 -40,15 -116,48 -168,74 -52,26 -133,61 -180,78 -47,17 -112,42 -145,57 -33,15 -98,41 -145,57 -205,72 -364,185 -410,290 -29,66 -38,218 -21,310 16,81 45,130 117,199 75,70 100,87 171,109 93,30 147,26 306,-26 z m 16179,9 c 90,-42 205,-160 255,-260 31,-63 36,-83 37,-147 0,-65 -4,-81 -38,-151 -62,-125 -130,-186 -314,-279 -84,-42 -202,-96 -264,-120 -262,-102 -347,-136 -415,-165 -40,-17 -105,-43 -145,-57 -40,-15 -116,-48 -168,-74 -52,-26 -133,-61 -180,-78 -47,-16 -112,-42 -145,-57 -33,-15 -98,-40 -145,-57 -47,-17 -128,-52 -180,-78 -52,-26 -129,-59 -170,-74 -41,-15 -111,-42 -155,-61 -76,-32 -175,-72 -430,-170 -60,-23 -150,-62 -200,-87 -49,-25 -115,-53 -145,-63 -30,-10 -95,-36 -145,-58 -49,-21 -120,-50 -157,-62 -37,-13 -129,-52 -205,-88 -76,-36 -156,-70 -178,-77 -22,-7 -83,-31 -135,-53 -122,-52 -176,-53 -304,-7 -117,43 -198,116 -254,228 -35,73 -37,80 -37,177 0,96 2,104 37,176 51,102 135,184 257,248 52,28 117,58 145,67 61,20 81,28 256,110 74,34 153,68 175,75 22,6 81,30 130,52 50,21 120,50 157,62 37,13 129,52 205,88 76,36 163,73 193,82 30,10 75,28 100,40 25,13 83,36 130,53 47,17 114,43 150,60 36,16 106,44 155,62 50,18 130,53 178,77 49,24 130,59 180,78 51,18 126,47 167,64 228,92 315,127 405,161 55,20 141,57 190,82 50,25 128,59 175,76 47,17 114,43 150,59 36,17 90,38 120,48 30,10 84,32 120,48 145,67 220,87 301,84 59,-3 90,-10 141,-34 z M 2641,13593 c 32,-12 46,-26 60,-57 18,-40 19,-116 19,-2153 0,-1943 -1,-2116 -17,-2154 -23,-58 -71,-79 -183,-79 -104,0 -160,22 -187,72 -17,32 -18,124 -18,2158 0,2034 1,2126 18,2158 27,50 84,72 184,72 54,0 97,-6 124,-17 z m 17717,-9 c 15,-11 35,-36 44,-55 17,-32 18,-155 18,-2149 0,-1994 -1,-2117 -18,-2149 -32,-64 -60,-76 -177,-76 -122,0 -145,11 -185,91 l -25,49 0,2080 c 0,1968 1,2082 18,2126 34,88 77,110 210,106 69,-3 93,-7 115,-23 z M 4851,12927 c 69,-46 64,71 64,-1547 0,-1618 5,-1501 -64,-1547 -30,-20 -46,-23 -140,-23 -120,0 -156,14 -188,72 -17,31 -18,107 -18,1498 0,1391 1,1467 18,1498 32,58 68,72 188,72 94,0 110,-3 140,-23 z m 13256,3 c 18,-10 40,-34 50,-52 17,-31 18,-107 18,-1503 0,-1233 -2,-1475 -14,-1503 -22,-52 -59,-65 -183,-65 -122,0 -158,14 -193,73 -20,35 -20,45 -20,1500 0,1391 1,1467 18,1498 32,58 68,72 187,72 87,0 111,-4 137,-20 z M 6992,12436 c 61,-40 59,13 56,-1080 l -3,-996 -28,-27 c -26,-27 -33,-28 -133,-31 -68,-3 -116,0 -135,8 -46,20 -86,73 -98,132 -8,37 -11,328 -9,963 l 3,910 27,46 c 46,78 94,100 213,96 56,-2 88,-9 107,-21 z m 8967,6 c 19,-9 44,-30 55,-45 21,-28 21,-35 24,-1015 2,-925 1,-989 -15,-1022 -25,-49 -54,-60 -163,-60 -115,0 -153,17 -169,77 -15,54 -15,1923 0,1978 21,76 66,104 169,105 43,0 77,-6 99,-18 z M 7019,9929 c 211,-48 337,-248 304,-484 -14,-94 -52,-175 -112,-235 -49,-48 -190,-128 -275,-156 -28,-9 -69,-24 -91,-34 -150,-66 -197,-85 -255,-105 -36,-13 -121,-50 -190,-83 -69,-33 -150,-68 -180,-77 -30,-10 -84,-31 -120,-48 -36,-16 -103,-42 -150,-59 -47,-17 -128,-52 -180,-78 -52,-26 -133,-61 -180,-78 -47,-16 -125,-48 -175,-69 -49,-22 -115,-48 -145,-58 -30,-10 -75,-28 -100,-40 -25,-13 -83,-36 -130,-53 -47,-17 -134,-53 -195,-82 -60,-29 -146,-65 -191,-81 -45,-16 -112,-43 -150,-60 -38,-17 -107,-44 -154,-61 -47,-17 -128,-52 -180,-78 -52,-26 -133,-61 -180,-78 -47,-17 -114,-43 -150,-59 -36,-17 -90,-38 -120,-48 -30,-10 -98,-37 -150,-60 -146,-66 -262,-98 -331,-93 -79,6 -198,65 -264,133 -87,89 -155,250 -140,334 13,76 58,194 96,250 42,63 87,98 164,126 28,10 102,43 165,73 108,50 169,75 454,186 63,25 163,68 223,96 59,29 146,65 193,82 47,17 105,40 130,53 25,13 83,36 130,53 47,17 134,53 193,82 99,47 157,70 432,177 50,19 142,57 206,84 63,27 122,49 129,49 8,0 75,29 150,64 74,36 176,79 225,97 50,17 107,40 128,51 21,10 77,33 125,50 48,17 127,50 176,75 49,25 146,67 215,93 69,27 165,65 213,85 168,69 319,91 437,64 z m 8991,0 c 25,-5 106,-39 180,-74 74,-35 153,-69 175,-76 22,-6 78,-29 125,-49 47,-21 119,-49 160,-64 41,-15 136,-56 210,-91 74,-34 160,-71 190,-80 30,-10 75,-28 101,-41 25,-12 90,-38 145,-57 56,-20 141,-55 190,-80 49,-24 122,-56 162,-71 40,-14 105,-40 145,-57 68,-29 144,-60 407,-162 63,-25 165,-68 225,-97 61,-28 148,-65 195,-82 47,-17 105,-40 130,-53 25,-13 83,-36 130,-53 47,-17 134,-53 193,-82 60,-28 159,-71 220,-95 62,-23 170,-66 241,-93 220,-86 301,-161 357,-331 41,-123 38,-175 -21,-294 -60,-123 -99,-164 -217,-222 -167,-83 -245,-73 -563,75 -80,37 -170,76 -200,85 -30,10 -75,28 -100,40 -25,13 -83,36 -130,53 -47,17 -125,48 -175,70 -49,21 -115,47 -145,57 -30,10 -98,39 -150,65 -52,26 -142,64 -200,85 -58,21 -122,46 -142,56 -21,11 -79,35 -130,53 -51,19 -141,57 -200,85 -59,28 -149,66 -201,85 -52,19 -111,43 -133,54 -21,11 -77,33 -124,50 -47,17 -111,42 -142,56 -31,14 -101,42 -155,62 -54,20 -141,58 -193,84 -52,26 -120,55 -150,65 -30,10 -95,36 -145,58 -49,21 -128,53 -175,69 -47,16 -119,48 -160,69 -41,22 -115,56 -165,75 -204,78 -272,129 -328,243 -30,62 -32,73 -32,171 0,105 0,105 47,203 26,54 59,113 74,133 32,41 100,83 163,100 56,15 250,17 311,3 z M 1909,9264 c 22,-9 47,-27 57,-42 18,-27 93,-208 149,-357 18,-49 59,-143 89,-207 31,-64 70,-156 87,-205 17,-48 41,-108 54,-133 12,-25 37,-88 55,-140 18,-52 43,-115 55,-140 12,-25 30,-70 40,-100 9,-30 46,-116 80,-190 35,-74 80,-179 100,-233 20,-53 51,-130 70,-170 18,-39 38,-91 44,-114 7,-23 38,-96 70,-161 33,-66 73,-158 90,-205 16,-47 39,-103 49,-124 11,-21 33,-76 50,-123 16,-47 46,-122 66,-167 44,-99 48,-162 14,-214 -29,-43 -140,-100 -207,-107 -89,-8 -121,24 -178,181 -14,39 -47,115 -73,167 -26,52 -59,128 -74,168 -14,39 -44,115 -66,167 -22,52 -52,128 -66,167 -15,40 -46,111 -69,158 -23,47 -59,132 -80,190 -21,58 -48,125 -60,150 -13,25 -36,83 -53,130 -17,47 -42,112 -57,145 -15,33 -41,98 -57,145 -17,47 -52,128 -78,180 -26,52 -59,127 -73,165 -14,39 -50,129 -81,202 -31,72 -56,137 -56,143 0,6 -27,66 -60,133 -105,215 -150,381 -119,440 22,40 81,80 154,103 55,17 88,17 134,-2 z m 19003,-70 c 63,-20 92,-35 120,-64 52,-52 52,-100 -1,-224 -21,-50 -42,-102 -46,-116 -4,-14 -15,-43 -25,-65 -62,-140 -85,-197 -105,-255 -13,-36 -50,-121 -83,-190 -33,-69 -68,-150 -77,-180 -10,-30 -31,-84 -48,-120 -16,-36 -42,-103 -59,-150 -17,-47 -52,-128 -78,-180 -26,-52 -61,-133 -78,-180 -16,-47 -42,-112 -57,-145 -15,-33 -40,-96 -55,-140 -15,-44 -41,-109 -57,-145 -17,-36 -45,-105 -63,-155 -18,-49 -53,-130 -78,-180 -24,-49 -59,-130 -77,-180 -18,-49 -49,-126 -68,-170 -19,-44 -40,-98 -47,-120 -35,-112 -87,-175 -144,-175 -40,0 -192,63 -222,91 -31,29 -47,82 -39,127 3,20 24,78 44,127 21,50 44,108 51,130 7,22 32,83 55,135 23,53 50,120 60,150 10,30 50,125 90,210 40,85 78,173 85,195 7,22 25,68 41,102 16,34 39,93 52,130 14,37 45,115 69,173 25,58 51,123 58,145 7,22 37,92 67,155 30,63 70,156 88,205 29,82 92,239 147,370 11,28 36,91 55,140 19,50 61,149 95,220 33,72 71,160 84,198 28,83 57,125 98,143 43,18 54,18 148,-12 z M 7541,9002 c 119,-76 212,-155 390,-328 126,-123 237,-222 285,-255 49,-33 156,-128 284,-254 122,-120 235,-222 280,-252 96,-65 304,-276 313,-318 9,-44 -26,-107 -91,-165 -70,-62 -110,-77 -165,-60 -32,9 -78,49 -211,179 -100,98 -204,190 -251,221 -50,34 -155,128 -280,251 -110,108 -232,218 -271,245 -40,27 -175,151 -305,278 -199,196 -233,234 -239,265 -7,44 11,78 77,143 82,80 121,90 184,50 z m 7780,-1 c 50,-32 78,-60 108,-111 26,-44 26,-76 0,-120 -37,-62 -378,-392 -464,-450 -51,-34 -153,-125 -280,-250 -110,-108 -229,-216 -265,-240 -36,-24 -156,-133 -267,-242 -193,-190 -242,-228 -293,-228 -37,0 -101,40 -166,104 -75,72 -80,97 -35,167 42,66 275,288 366,349 50,34 157,130 285,255 113,111 232,219 265,240 35,22 159,135 295,270 299,296 347,323 451,256 z M 5757,7831 c 84,-68 2060,-2054 2077,-2088 21,-41 20,-92 -1,-123 -78,-117 -179,-157 -276,-109 -64,32 -2060,2029 -2085,2088 -29,64 -6,126 75,202 89,84 134,91 210,30 z m 11329,11 c 53,-38 133,-129 140,-158 4,-13 3,-41 -1,-62 -6,-33 -121,-151 -1033,-1064 -726,-726 -1038,-1032 -1064,-1043 -21,-8 -50,-15 -66,-15 -49,0 -144,73 -195,150 -29,43 -22,92 22,147 45,56 2012,2019 2055,2052 41,30 94,28 142,-7 z M 9731,7272 c 79,-38 149,-109 187,-190 25,-53 27,-66 27,-197 l 0,-140 -66,-140 c -37,-77 -75,-165 -84,-195 -10,-30 -37,-97 -60,-150 -23,-52 -50,-120 -60,-150 -10,-30 -39,-98 -65,-150 -26,-52 -64,-140 -85,-194 -20,-55 -50,-129 -65,-165 -16,-36 -46,-111 -66,-166 -20,-55 -54,-135 -76,-178 -22,-44 -57,-125 -78,-180 -40,-105 -88,-226 -142,-357 -17,-41 -48,-121 -69,-176 -21,-56 -58,-142 -82,-190 -24,-49 -59,-129 -77,-179 -18,-49 -46,-119 -62,-155 -17,-36 -43,-103 -60,-150 -17,-47 -52,-128 -78,-180 -26,-52 -61,-133 -78,-180 -17,-47 -43,-114 -59,-150 -17,-36 -38,-90 -48,-120 -34,-105 -87,-192 -166,-272 -104,-106 -140,-121 -289,-121 -135,-1 -172,9 -257,70 -75,53 -100,84 -150,188 -55,117 -57,183 -8,335 21,63 59,158 85,210 26,52 64,140 85,194 20,55 50,129 65,165 16,36 45,107 63,156 76,197 120,305 169,410 28,61 66,151 83,200 18,50 45,117 60,150 15,33 41,101 60,150 18,50 53,131 77,180 25,50 60,131 78,180 18,50 46,119 62,155 17,36 43,103 60,150 17,47 51,126 76,175 25,50 62,135 82,190 21,55 51,134 68,175 56,135 103,253 138,345 19,50 62,149 96,220 33,72 65,139 69,150 46,119 98,191 181,253 77,57 96,62 253,59 134,-3 143,-4 206,-35 z m 3721,0 c 37,-18 79,-47 94,-65 32,-38 174,-321 199,-397 10,-30 31,-84 48,-120 16,-36 42,-103 59,-150 17,-47 52,-128 78,-180 26,-52 61,-133 78,-180 16,-47 48,-125 69,-175 22,-49 48,-115 58,-145 10,-30 28,-75 40,-100 13,-25 36,-83 53,-130 16,-47 57,-144 90,-215 34,-72 77,-170 95,-220 19,-49 49,-126 67,-170 18,-44 48,-118 67,-165 19,-47 50,-125 68,-175 18,-49 55,-137 83,-195 27,-58 68,-152 90,-210 42,-108 98,-250 131,-330 10,-25 42,-94 70,-155 47,-103 90,-209 147,-365 29,-80 33,-217 8,-301 -47,-159 -171,-260 -343,-280 -82,-10 -195,-4 -250,13 -38,12 -184,146 -209,193 -22,41 -96,218 -141,340 -21,55 -47,118 -58,140 -12,22 -35,79 -51,127 -17,48 -54,136 -82,195 -48,100 -89,199 -176,428 -19,50 -62,148 -96,220 -33,71 -74,168 -90,215 -17,47 -39,102 -49,123 -11,21 -37,84 -58,140 -21,56 -52,136 -69,177 -17,41 -47,113 -65,160 -19,47 -53,126 -75,175 -41,88 -90,211 -158,390 -19,50 -61,146 -94,215 -32,69 -73,166 -91,215 -17,50 -41,110 -54,135 -12,25 -28,63 -35,85 -7,22 -34,92 -60,155 -26,63 -51,138 -54,165 -15,119 90,343 190,401 79,46 118,54 269,51 136,-2 142,-3 207,-35 z m -1095,-478 c 48,-35 63,-78 63,-182 0,-117 -16,-157 -74,-183 -39,-18 -88,-19 -1006,-19 -918,0 -967,1 -1006,19 -54,24 -74,68 -74,158 0,37 5,85 11,106 13,49 63,104 103,116 18,6 430,9 993,8 955,-2 962,-2 990,-23 z m -8679,-68 c 15,-8 705,-693 1534,-1523 1662,-1664 1541,-1533 1501,-1624 -22,-50 -88,-114 -139,-135 -47,-20 -104,-17 -139,6 -34,22 -2918,2901 -2973,2968 -79,96 -44,217 88,305 30,21 92,22 128,3 z m 15450,0 c 40,-21 150,-139 158,-170 3,-14 3,-38 -1,-53 -11,-46 -3022,-3057 -3067,-3068 -44,-11 -76,2 -130,53 -104,96 -130,161 -94,230 17,30 2980,2994 3011,3011 28,15 91,14 123,-3 z M 12840,4772 c 56,-28 74,-77 74,-203 0,-85 -3,-111 -18,-133 -38,-59 44,-56 -1538,-56 -926,0 -1466,4 -1489,10 -57,16 -89,57 -99,128 -10,72 2,183 23,216 8,12 30,30 49,39 30,15 159,17 1498,17 1375,0 1467,-1 1500,-18 z M 6386,3165 c 60,-26 147,-60 194,-77 47,-17 128,-52 180,-78 52,-26 133,-61 180,-78 47,-16 114,-43 150,-60 36,-17 83,-36 105,-42 52,-16 111,-42 215,-95 47,-24 123,-56 170,-73 47,-16 126,-48 175,-69 50,-22 115,-48 145,-58 30,-10 75,-28 100,-40 25,-12 88,-37 140,-55 52,-18 138,-54 190,-80 52,-26 128,-59 168,-74 39,-14 115,-44 167,-66 52,-22 128,-52 167,-66 95,-34 256,-115 296,-149 17,-15 37,-44 43,-65 10,-34 8,-50 -16,-126 -34,-110 -72,-154 -133,-154 -45,0 -213,55 -299,99 -32,16 -81,36 -109,44 -29,9 -105,41 -170,72 -112,53 -173,79 -461,191 -65,25 -174,72 -243,104 -69,32 -143,64 -165,70 -22,7 -83,32 -135,55 -52,23 -126,52 -165,65 -38,13 -113,44 -165,70 -52,26 -128,59 -168,74 -40,14 -105,40 -145,57 -69,30 -162,66 -413,164 -162,63 -290,131 -319,170 -17,22 -25,45 -25,73 0,51 56,199 88,230 37,38 119,27 258,-33 z m 10145,-13 c 61,-68 92,-220 57,-274 -21,-32 -257,-154 -385,-199 -48,-17 -108,-41 -133,-54 -25,-13 -83,-36 -130,-53 -47,-17 -114,-43 -150,-59 -36,-17 -90,-38 -120,-48 -30,-10 -113,-44 -185,-77 -71,-33 -181,-80 -242,-104 -296,-116 -345,-136 -443,-183 -58,-27 -145,-64 -195,-82 -49,-17 -108,-40 -129,-51 -22,-11 -80,-35 -130,-53 -50,-18 -143,-58 -206,-88 -63,-31 -146,-68 -185,-82 -38,-14 -111,-44 -162,-66 -120,-52 -179,-59 -227,-29 -39,24 -58,53 -87,138 -29,83 -25,134 11,175 36,42 136,96 262,141 51,19 120,46 153,61 33,15 98,41 145,57 47,17 128,52 180,78 52,26 133,61 180,78 47,17 114,43 150,59 36,17 90,38 120,47 30,10 116,46 190,81 74,35 176,78 225,96 50,17 110,41 135,54 25,12 63,28 85,35 22,7 56,19 75,27 19,9 49,21 65,28 17,7 55,24 85,37 30,14 73,31 95,37 22,7 101,41 175,76 74,35 176,78 225,96 50,17 108,40 130,52 22,11 85,35 140,54 127,42 185,41 226,-5 z m -3042,-406 c 60,-27 81,-73 81,-186 0,-104 -22,-160 -72,-187 -32,-17 -123,-18 -2153,-18 -1980,0 -2122,1 -2158,17 -54,25 -76,79 -77,185 0,135 27,178 127,202 22,5 922,8 2123,8 2027,-2 2086,-3 2129,-21 z"
       inkscape:connector-curvature="0" />
  </g>
</svg>
