<?xml version="1.0" encoding="UTF-8" standalone="no"?>
<svg
   xmlns:dc="http://purl.org/dc/elements/1.1/"
   xmlns:cc="http://creativecommons.org/ns#"
   xmlns:rdf="http://www.w3.org/1999/02/22-rdf-syntax-ns#"
   xmlns:svg="http://www.w3.org/2000/svg"
   xmlns="http://www.w3.org/2000/svg"
   xmlns:sodipodi="http://sodipodi.sourceforge.net/DTD/sodipodi-0.dtd"
   xmlns:inkscape="http://www.inkscape.org/namespaces/inkscape"
   viewBox="0 0 48 48"
   id="svg2"
   version="1.1"
   inkscape:version="0.91 r13725"
   sodipodi:docname="brain_1.svg">
  <metadata
     id="metadata81">
    <rdf:RDF>
      <cc:Work
         rdf:about="">
        <dc:format>image/svg+xml</dc:format>
        <dc:type
           rdf:resource="http://purl.org/dc/dcmitype/StillImage" />
        <dc:title></dc:title>
      </cc:Work>
    </rdf:RDF>
  </metadata>
  <sodipodi:namedview
     pagecolor="#ffffff"
     bordercolor="#666666"
     borderopacity="1"
     objecttolerance="10"
     gridtolerance="10"
     guidetolerance="10"
     inkscape:pageopacity="0"
     inkscape:pageshadow="2"
     inkscape:window-width="1855"
     inkscape:window-height="1056"
     id="namedview79"
     showgrid="false"
     inkscape:zoom="13.906433"
     inkscape:cx="29.182046"
     inkscape:cy="16.046867"
     inkscape:window-x="65"
     inkscape:window-y="24"
     inkscape:window-maximized="1"
     inkscape:current-layer="svg2" />
  <defs
     id="defs4">
    <linearGradient
       id="linearGradient3764"
       x1="1"
       x2="47"
       gradientUnits="userSpaceOnUse"
       gradientTransform="matrix(0,-1,1,0,-1.5e-6,47.999998)">
      <stop
         stop-color="#4193b5"
         stop-opacity="1"
         id="stop7" />
      <stop
         offset="1"
         stop-color="#4b9cbf"
         stop-opacity="1"
         id="stop9" />
    </linearGradient>
    <clipPath
       id="clipPath-964724874">
      <g
         transform="translate(0,-1004.3622)"
         id="g12">
        <path
           d="m -24 13 c 0 1.105 -0.672 2 -1.5 2 -0.828 0 -1.5 -0.895 -1.5 -2 0 -1.105 0.672 -2 1.5 -2 0.828 0 1.5 0.895 1.5 2 z"
           transform="matrix(15.333333,0,0,11.5,414.99999,878.8622)"
           fill="#1890d0"
           id="path14" />
      </g>
    </clipPath>
    <clipPath
       id="clipPath-974838179">
      <g
         transform="translate(0,-1004.3622)"
         id="g17">
        <path
           d="m -24 13 c 0 1.105 -0.672 2 -1.5 2 -0.828 0 -1.5 -0.895 -1.5 -2 0 -1.105 0.672 -2 1.5 -2 0.828 0 1.5 0.895 1.5 2 z"
           transform="matrix(15.333333,0,0,11.5,414.99999,878.8622)"
           fill="#1890d0"
           id="path19" />
      </g>
    </clipPath>
  </defs>
  <g
     id="g29"
     style="fill:#0055a0;fill-opacity:1">
    <path
       d="m 24 1 c 12.703 0 23 10.297 23 23 c 0 12.703 -10.297 23 -23 23 -12.703 0 -23 -10.297 -23 -23 0 -12.703 10.297 -23 23 -23 z"
       fill="url(#linearGradient3764)"
       fill-opacity="1"
       id="path31"
       style="fill:#0055a0;fill-opacity:1" />
  </g>
  <g
     id="g33" />
  <g
     id="g57"
     style="fill:#ffffff">
    <g
       clip-path="url(#clipPath-974838179)"
       id="g59"
       style="fill:#ffffff">
      <!-- color: #4b9cbf -->
      <g
         id="g61"
         style="fill:#ffffff">
        <path
           d="m 12.426 23.16 l 1.746 2.617 l 2.977 -0.148 l 3.945 -3.445 l -0.023 -3.914 l 2.738 -2.469 l 0.047 -1.68 l -2.457 -1.332 l -3.215 0.344 l -3.402 2.57 l -2.789 3.703 m 0.434 3.754"
           fill="#f9f9f9"
           stroke="none"
           fill-rule="nonzero"
           fill-opacity="1"
           id="path63"
           style="fill:#ffffff" />
        <path
           d="m 18.426 28.15 l 3.969 1.383 l 2.93 -0.688 l 4.395 -2.172 l 1.133 -2.125 l -0.945 -2.566 l -2.598 -1.531 l -4.676 2.023 l -4.066 2.469 m -0.141 3.211"
           fill="#f9f9f9"
           stroke="none"
           fill-rule="nonzero"
           fill-opacity="1"
           id="path65"
           style="fill:#ffffff" />
        <path
           d="m 36 25.285 l -4.348 0.246 l -0.426 -3.801 l -2.223 -1.879 l 4.68 -0.148 l 1.652 0.84 m 0.664 4.742"
           fill="#f9f9f9"
           stroke="none"
           fill-rule="nonzero"
           fill-opacity="1"
           id="path67"
           style="fill:#ffffff" />
        <path
           d="m 21.922 21.961 l -0.137 -3.5 l 3.262 -2.609 l -0.285 -1.875 c 0 0 -2.289 -1.25 -2.102 -1.199 c 0.188 0.051 5.313 0.805 5.313 0.805 l 4.492 2.27 l 2.219 2.719 l -1.133 0.355 l -4.02 -0.398 l -4.676 1.93 m -2.938 1.512"
           fill="#f9f9f9"
           stroke="none"
           fill-rule="nonzero"
           fill-opacity="1"
           id="path69"
           style="fill:#ffffff" />
        <path
           d="m 26.672 29.15 l 3.941 -2.484 l 4.578 -0.43 c 0 0 -0.914 2.863 -0.965 3.156 c -0.043 0.297 -1.133 1.094 -1.133 1.094 l -2.293 0.879 l -2.219 0.121 m -1.91 -2.336"
           fill="#f9f9f9"
           stroke="none"
           fill-rule="nonzero"
           fill-opacity="1"
           id="path71"
           style="fill:#ffffff" />
        <path
           d="m 23.387 30.52 l 3.871 5.48 l 2.223 -1.582 l -3.496 -4.391 m -2.598 0.492"
           fill="#f9f9f9"
           stroke="none"
           fill-rule="nonzero"
           fill-opacity="1"
           id="path73"
           style="fill:#ffffff" />
      </g>
    </g>
  </g>
</svg>
