<?xml version="1.0" encoding="UTF-8" standalone="yes"?>
<!-- Created with sK1/UniConvertor (http://sk1project.org/) -->
<svg xmlns="http://www.w3.org/2000/svg" xmlns:xlink="http://www.w3.org/1999/xlink"
  width="38.4pt" height="38.4pt" viewBox="0 0 38.4 38.4"
  fill-rule="evenodd">
<g>
<path style="stroke:none; fill:#385faa" d="M 27.1752 19.2C 27.1752 23.6032 23.6032 27.1752 19.2 27.1752C 14.7968 27.1752 11.2248 23.6032 11.2248 19.2C 11.2248 14.7968 14.7968 11.2248 19.2 11.2248C 23.6032 11.2248 27.1752 14.7968 27.1752 19.2M 27.1752 19.2"/>
<path style="stroke:none; fill:#385faa" d="M 25.6 19.2C 25.6 22.7344 22.7344 25.6 19.2 25.6C 15.6656 25.6 12.8 22.7344 12.8 19.2C 12.8 15.6656 15.6656 12.8 19.2 12.8C 22.7344 12.8 25.6 15.6656 25.6 19.2M 25.6 19.2"/>
<path style="stroke:none; fill:#385faa" d="M 25.5784 19.2C 25.5784 22.7216 22.7224 25.5784 19.2 25.5784C 15.6784 25.5784 12.8216 22.7224 12.8216 19.2C 12.8216 15.6784 15.6776 12.8216 19.2 12.8216C 22.7216 12.8216 25.5784 15.6776 25.5784 19.2M 25.5784 19.2"/>
<path style="stroke:none; fill:#385faa" d="M 23.6504 13.6C 24.472 14.2592 25.2288 15.1184 25.7008 16.0752C 26.1696 17.0256 26.4008 18.0912 26.4008 19.2256C 26.4008 20.2192 26.2144 21.1632 25.8504 22.0256C 25.4848 22.888 24.9528 23.6752 24.3 24.3256C 23.6496 24.9784 22.64 25.5736 21.7808 25.9416C 21.0776 26.2384 20.6888 26.336 19.8944 26.4016L 13.7256 36.7768C 15.4544 37.3144 17.2952 37.6016 19.2008 37.6016C 29.3632 37.6016 37.6008 29.364 37.6008 19.2016C 37.6008 17.2488 37.2896 15.3672 36.7256 13.6016L 23.6504 13.6z"/>
<path style="stroke:none; fill:#385faa" d="M 6.6248 5.7768C 3.0424 9.1344 0.8 13.9048 0.8 19.2016C 0.8 27.9704 6.9392 35.3056 15.1504 37.152L 21.8008 25.928C 20.8192 26.3096 19.7848 26.4968 18.7256 26.428C 17.6664 26.3592 16.6064 26.0216 15.6256 25.4528C 14.7664 24.956 14.0392 24.3248 13.4752 23.5776C 12.9096 22.8304 12.488 21.9616 12.2504 21.0776C 12.0128 20.1872 11.9344 19.2552 12.0504 18.3272C 12.144 17.5712 12.4544 16.8704 12.8008 16.152L 12.8256 16.152L 6.6256 5.7768L 6.6248 5.7768z"/>
<path style="stroke:none; fill:#385faa" d="M 19.2 0.800003C 13.7888 0.800003 8.9168 3.132 5.552 6.8504L 12.1024 18.1224C 12.2648 17.0816 12.64 16.0784 13.2272 15.1976C 13.8176 14.3136 14.6208 13.5632 15.6024 12.9976C 16.4648 12.4976 17.3744 12.1848 18.3024 12.0728C 19.2304 11.9568 20.1864 12.032 21.0776 12.2728C 21.968 12.5104 22.8056 12.9072 23.5528 13.4728C 24.1624 13.9288 24.6312 14.5632 25.0776 15.2232L 37.1496 15.1984C 35.32 6.964 27.9848 0.798401 19.1992 0.798401L 19.2 0.800003z"/>
<path style="stroke:none; fill:#000000" d="M 25.6 20C 25.6 23.0936 23.0936 25.6 20 25.6C 16.9064 25.6 14.4 23.0936 14.4 20C 14.4 16.9064 16.9064 14.4 20 14.4C 23.0936 14.4 25.6 16.9064 25.6 20M 25.6 20"/>
<path style="stroke:none; fill:#ffffff" d="M 26.4 19.2C 26.4 23.1784 23.176 26.4 19.2 26.4C 15.2248 26.4 12 23.176 12 19.2C 12 15.2248 15.224 12 19.2 12C 23.1784 12 26.4 15.224 26.4 19.2M 26.4 19.2"/>
<path style="stroke:none; fill:#385faa" d="M 24.8 19.2C 24.8 22.2936 22.2936 24.8 19.2 24.8C 16.1064 24.8 13.6 22.2936 13.6 19.2C 13.6 16.1064 16.1064 13.6 19.2 13.6C 22.2936 13.6 24.8 16.1064 24.8 19.2M 24.8 19.2"/>
</g>
</svg>