<?xml version="1.0" encoding="UTF-8" standalone="no"?>
<svg
   xmlns:dc="http://purl.org/dc/elements/1.1/"
   xmlns:cc="http://creativecommons.org/ns#"
   xmlns:rdf="http://www.w3.org/1999/02/22-rdf-syntax-ns#"
   xmlns:svg="http://www.w3.org/2000/svg"
   xmlns="http://www.w3.org/2000/svg"
   xmlns:sodipodi="http://sodipodi.sourceforge.net/DTD/sodipodi-0.dtd"
   xmlns:inkscape="http://www.inkscape.org/namespaces/inkscape"
   viewBox="0 0 48 48"
   id="svg2"
   version="1.1"
   inkscape:version="0.91 r13725"
   sodipodi:docname="google-chrome_2.svg">
  <metadata
     id="metadata55">
    <rdf:RDF>
      <cc:Work
         rdf:about="">
        <dc:format>image/svg+xml</dc:format>
        <dc:type
           rdf:resource="http://purl.org/dc/dcmitype/StillImage" />
        <dc:title></dc:title>
      </cc:Work>
    </rdf:RDF>
  </metadata>
  <sodipodi:namedview
     pagecolor="#ffffff"
     bordercolor="#666666"
     borderopacity="1"
     objecttolerance="10"
     gridtolerance="10"
     guidetolerance="10"
     inkscape:pageopacity="0"
     inkscape:pageshadow="2"
     inkscape:window-width="1855"
     inkscape:window-height="1056"
     id="namedview53"
     showgrid="false"
     inkscape:zoom="13.906433"
     inkscape:cx="14.830341"
     inkscape:cy="26.674707"
     inkscape:window-x="65"
     inkscape:window-y="24"
     inkscape:window-maximized="1"
     inkscape:current-layer="svg2" />
  <defs
     id="defs4">
    <clipPath
       id="clipPath6">
      <g
         transform="translate(0,-1004.3622)"
         id="g8">
        <path
           d="m -24 13 c 0 1.105 -0.672 2 -1.5 2 -0.828 0 -1.5 -0.895 -1.5 -2 0 -1.105 0.672 -2 1.5 -2 0.828 0 1.5 0.895 1.5 2 z"
           transform="matrix(15.333333,0,0,11.5,414.99999,878.8622)"
           fill="#1890d0"
           id="path10" />
      </g>
    </clipPath>
    <clipPath
       id="clipPath12">
      <g
         transform="translate(0,-1004.3622)"
         id="g14">
        <path
           d="m -24 13 c 0 1.105 -0.672 2 -1.5 2 -0.828 0 -1.5 -0.895 -1.5 -2 0 -1.105 0.672 -2 1.5 -2 0.828 0 1.5 0.895 1.5 2 z"
           transform="matrix(15.333333,0,0,11.5,414.99999,878.8622)"
           fill="#1890d0"
           id="path16" />
      </g>
    </clipPath>
  </defs>
  <path
     d="m 33.969 24 c 0 5.504 -4.465 9.969 -9.969 9.969 -5.504 0 -9.969 -4.465 -9.969 -9.969 0 -5.504 4.465 -9.969 9.969 -9.969 5.504 0 9.969 4.465 9.969 9.969 m 0 0"
     fill="#f9f9f9"
     fill-rule="nonzero"
     stroke="none"
     fill-opacity="1"
     id="path28" />
  <path
     d="m 32 24 c 0 4.418 -3.582 8 -8 8 -4.418 0 -8 -3.582 -8 -8 0 -4.418 3.582 -8 8 -8 4.418 0 8 3.582 8 8 m 0 0"
     fill="#209cc8"
     fill-rule="nonzero"
     stroke="none"
     fill-opacity="1"
     id="path30" />
  <path
     d="m 31.973 24 c 0 4.402 -3.57 7.973 -7.973 7.973 -4.402 0 -7.973 -3.57 -7.973 -7.973 0 -4.402 3.57 -7.973 7.973 -7.973 4.402 0 7.973 3.57 7.973 7.973 m 0 0"
     fill="#209dc8"
     fill-rule="nonzero"
     stroke="none"
     fill-opacity="1"
     id="path32" />
  <path
     d="m 29.563 17 c 1.027 0.824 1.973 1.898 2.563 3.094 0.586 1.188 0.875 2.52 0.875 3.938 0 1.242 -0.233 2.422 -0.688 3.5 -0.457 1.078 -1.122 2.062 -1.938 2.875 -0.813 0.816 -2.075 1.56 -3.149 2.02 -0.879 0.371 -1.365 0.493 -2.358 0.575 l -7.711 12.969 c 2.161 0.672 4.462 1.031 6.844 1.031 12.703 0 23 -10.297 23 -23 0 -2.441 -0.389 -4.793 -1.094 -7 z"
     fill="#e3a400"
     fill-rule="nonzero"
     stroke="none"
     fill-opacity="1"
     id="path34"
     style="fill:#0055a0;fill-opacity:1" />
  <path
     d="m 8.281 7.221 c -4.478 4.197 -7.281 10.16 -7.281 16.781 0 10.961 7.674 20.13 17.938 22.438 l 8.313 -14.03 c -1.227 0.477 -2.52 0.711 -3.844 0.625 -1.324 -0.086 -2.649 -0.508 -3.875 -1.219 -1.074 -0.621 -1.983 -1.41 -2.688 -2.344 -0.707 -0.934 -1.234 -2.02 -1.531 -3.125 -0.297 -1.113 -0.395 -2.278 -0.25 -3.438 0.117 -0.945 0.505 -1.821 0.938 -2.719 l 0.031 0 -7.75 -12.969 z"
     fill="#0f8e52"
     fill-rule="nonzero"
     stroke="none"
     fill-opacity="1"
     id="path36"
     style="fill:#0055a0;fill-opacity:1" />
  <path
     d="m 24 1 c -6.764 0 -12.854 2.915 -17.06 7.563 l 8.188 14.09 c 0.203 -1.301 0.672 -2.555 1.406 -3.656 0.738 -1.105 1.742 -2.043 2.969 -2.75 1.078 -0.625 2.215 -1.016 3.375 -1.156 1.16 -0.145 2.355 -0.051 3.469 0.25 1.113 0.297 2.16 0.793 3.094 1.5 0.762 0.57 1.348 1.363 1.906 2.188 l 15.09 -0.031 c -2.287 -10.293 -11.456 -18 -22.438 -18 z"
     fill="#d74336"
     fill-rule="nonzero"
     stroke="none"
     fill-opacity="1"
     id="path38"
     style="fill:#0055a0;fill-opacity:1" />
  <path
     d="m 32 25 c 0 3.867 -3.133 7 -7 7 -3.867 0 -7 -3.133 -7 -7 0 -3.867 3.133 -7 7 -7 3.867 0 7 3.133 7 7 m 0 0"
     opacity="0.1"
     fill="#000"
     fill-rule="nonzero"
     stroke="none"
     fill-opacity="1"
     id="SVGCleanerId_0" />
  <path
     d="m 33 24 c 0 4.973 -4.03 9 -9 9 -4.969 0 -9 -4.03 -9 -9 0 -4.969 4.03 -9 9 -9 4.973 0 9 4.03 9 9 m 0 0"
     fill="#f9f9f9"
     fill-rule="nonzero"
     stroke="none"
     fill-opacity="1"
     id="path41" />
  <path
     d="m 31 24 c 0 3.867 -3.133 7 -7 7 -3.867 0 -7 -3.133 -7 -7 0 -3.867 3.133 -7 7 -7 3.867 0 7 3.133 7 7 m 0 0"
     fill="#3d7de5"
     fill-rule="nonzero"
     stroke="none"
     fill-opacity="1"
     id="path45"
     style="fill:#0055a0;fill-opacity:1" />
  <g
     transform="translate(0,0.0022)"
     id="g47" />
</svg>
