<?xml version="1.0" encoding="UTF-8" standalone="no"?>
<svg
   xmlns:dc="http://purl.org/dc/elements/1.1/"
   xmlns:cc="http://creativecommons.org/ns#"
   xmlns:rdf="http://www.w3.org/1999/02/22-rdf-syntax-ns#"
   xmlns:svg="http://www.w3.org/2000/svg"
   xmlns="http://www.w3.org/2000/svg"
   xmlns:sodipodi="http://sodipodi.sourceforge.net/DTD/sodipodi-0.dtd"
   xmlns:inkscape="http://www.inkscape.org/namespaces/inkscape"
   viewBox="0 0 48 48"
   id="svg2"
   version="1.1"
   inkscape:version="0.91 r13725"
   sodipodi:docname="keyboard_1.svg">
  <metadata
     id="metadata133">
    <rdf:RDF>
      <cc:Work
         rdf:about="">
        <dc:format>image/svg+xml</dc:format>
        <dc:type
           rdf:resource="http://purl.org/dc/dcmitype/StillImage" />
      </cc:Work>
    </rdf:RDF>
  </metadata>
  <sodipodi:namedview
     pagecolor="#ffffff"
     bordercolor="#666666"
     borderopacity="1"
     objecttolerance="10"
     gridtolerance="10"
     guidetolerance="10"
     inkscape:pageopacity="0"
     inkscape:pageshadow="2"
     inkscape:window-width="1855"
     inkscape:window-height="1056"
     id="namedview131"
     showgrid="false"
     inkscape:zoom="13.906433"
     inkscape:cx="29.033517"
     inkscape:cy="26.908955"
     inkscape:window-x="65"
     inkscape:window-y="24"
     inkscape:window-maximized="1"
     inkscape:current-layer="svg2" />
  <defs
     id="defs4">
    <linearGradient
       id="linearGradient3764"
       x1="1"
       x2="47"
       gradientUnits="userSpaceOnUse"
       gradientTransform="matrix(0,-1,1,0,-1.5e-6,47.999998)">
      <stop
         stop-color="#5e6670"
         stop-opacity="1"
         id="stop7" />
      <stop
         offset="1"
         stop-color="#67707b"
         stop-opacity="1"
         id="stop9" />
    </linearGradient>
    <clipPath
       id="clipPath-561578208">
      <g
         transform="translate(0,-1004.3622)"
         id="g12">
        <path
           d="m -24 13 c 0 1.105 -0.672 2 -1.5 2 -0.828 0 -1.5 -0.895 -1.5 -2 0 -1.105 0.672 -2 1.5 -2 0.828 0 1.5 0.895 1.5 2 z"
           transform="matrix(15.333333,0,0,11.5,414.99999,878.8622)"
           fill="#1890d0"
           id="path14" />
      </g>
    </clipPath>
    <clipPath
       id="clipPath-572739784">
      <g
         transform="translate(0,-1004.3622)"
         id="g17">
        <path
           d="m -24 13 c 0 1.105 -0.672 2 -1.5 2 -0.828 0 -1.5 -0.895 -1.5 -2 0 -1.105 0.672 -2 1.5 -2 0.828 0 1.5 0.895 1.5 2 z"
           transform="matrix(15.333333,0,0,11.5,414.99999,878.8622)"
           fill="#1890d0"
           id="path19" />
      </g>
    </clipPath>
  </defs>
  <g
     id="g29">
    <path
       d="m 24 1 c 12.703 0 23 10.297 23 23 c 0 12.703 -10.297 23 -23 23 -12.703 0 -23 -10.297 -23 -23 0 -12.703 10.297 -23 23 -23 z"
       fill="url(#linearGradient3764)"
       fill-opacity="1"
       id="path31"
       style="fill:#0055a0;fill-opacity:1" />
  </g>
  <g
     id="g33" />
  <g
     id="g83"
     style="fill:#ffffff">
    <g
       clip-path="url(#clipPath-572739784)"
       id="g85"
       style="fill:#ffffff">
      <!-- color: #67707b -->
      <g
         id="g87"
         style="fill:#ffffff">
        <path
           d="m 8 13.996 l 2 0 c 0.551 0 1 0.449 1 1 l 0 2 c 0 0.555 -0.449 1 -1 1 l -2 0 c -0.551 0 -1 -0.445 -1 -1 l 0 -2 c 0 -0.551 0.449 -1 1 -1 m 0 0"
           fill="#ececeb"
           stroke="none"
           fill-rule="nonzero"
           fill-opacity="1"
           id="path89"
           style="fill:#ffffff" />
        <path
           d="m 14 13.996 l 2 0 c 0.551 0 1 0.449 1 1 l 0 2 c 0 0.555 -0.449 1 -1 1 l -2 0 c -0.551 0 -1 -0.445 -1 -1 l 0 -2 c 0 -0.551 0.449 -1 1 -1 m 0 0"
           fill="#ececeb"
           stroke="none"
           fill-rule="nonzero"
           fill-opacity="1"
           id="path91"
           style="fill:#ffffff" />
        <path
           d="m 20 13.996 l 2 0 c 0.551 0 1 0.449 1 1 l 0 2 c 0 0.555 -0.449 1 -1 1 l -2 0 c -0.551 0 -1 -0.445 -1 -1 l 0 -2 c 0 -0.551 0.449 -1 1 -1 m 0 0"
           fill="#ececeb"
           stroke="none"
           fill-rule="nonzero"
           fill-opacity="1"
           id="path93"
           style="fill:#ffffff" />
        <path
           d="m 26 13.996 l 2 0 c 0.551 0 1 0.449 1 1 l 0 2 c 0 0.555 -0.449 1 -1 1 l -2 0 c -0.551 0 -1 -0.445 -1 -1 l 0 -2 c 0 -0.551 0.449 -1 1 -1 m 0 0"
           fill="#ececeb"
           stroke="none"
           fill-rule="nonzero"
           fill-opacity="1"
           id="path95"
           style="fill:#ffffff" />
        <path
           d="m 32 13.996 l 2 0 c 0.551 0 1 0.449 1 1 l 0 2 c 0 0.555 -0.449 1 -1 1 l -2 0 c -0.551 0 -1 -0.445 -1 -1 l 0 -2 c 0 -0.551 0.449 -1 1 -1 m 0 0"
           fill="#ececeb"
           stroke="none"
           fill-rule="nonzero"
           fill-opacity="1"
           id="path97"
           style="fill:#ffffff" />
        <path
           d="m 38 13.996 l 2 0 c 0.551 0 1 0.449 1 1 l 0 2 c 0 0.555 -0.449 1 -1 1 l -2 0 c -0.551 0 -1 -0.445 -1 -1 l 0 -2 c 0 -0.551 0.449 -1 1 -1 m 0 0"
           fill="#ececeb"
           stroke="none"
           fill-rule="nonzero"
           fill-opacity="1"
           id="path99"
           style="fill:#ffffff" />
        <path
           d="m 8 19.996 l 2 0 c 0.551 0 1 0.449 1 1 l 0 2 c 0 0.555 -0.449 1 -1 1 l -2 0 c -0.551 0 -1 -0.445 -1 -1 l 0 -2 c 0 -0.551 0.449 -1 1 -1 m 0 0"
           fill="#ececeb"
           stroke="none"
           fill-rule="nonzero"
           fill-opacity="1"
           id="path101"
           style="fill:#ffffff" />
        <path
           d="m 14 19.996 l 2 0 c 0.551 0 1 0.449 1 1 l 0 2 c 0 0.555 -0.449 1 -1 1 l -2 0 c -0.551 0 -1 -0.445 -1 -1 l 0 -2 c 0 -0.551 0.449 -1 1 -1 m 0 0"
           fill="#ececeb"
           stroke="none"
           fill-rule="nonzero"
           fill-opacity="1"
           id="path103"
           style="fill:#ffffff" />
        <path
           d="m 20 19.996 l 2 0 c 0.551 0 1 0.449 1 1 l 0 2 c 0 0.555 -0.449 1 -1 1 l -2 0 c -0.551 0 -1 -0.445 -1 -1 l 0 -2 c 0 -0.551 0.449 -1 1 -1 m 0 0"
           fill="#ececeb"
           stroke="none"
           fill-rule="nonzero"
           fill-opacity="1"
           id="path105"
           style="fill:#ffffff" />
        <path
           d="m 26 19.996 l 2 0 c 0.551 0 1 0.449 1 1 l 0 2 c 0 0.555 -0.449 1 -1 1 l -2 0 c -0.551 0 -1 -0.445 -1 -1 l 0 -2 c 0 -0.551 0.449 -1 1 -1 m 0 0"
           fill="#ececeb"
           stroke="none"
           fill-rule="nonzero"
           fill-opacity="1"
           id="path107"
           style="fill:#ffffff" />
        <path
           d="m 32 19.996 l 2 0 c 0.551 0 1 0.449 1 1 l 0 2 c 0 0.555 -0.449 1 -1 1 l -2 0 c -0.551 0 -1 -0.445 -1 -1 l 0 -2 c 0 -0.551 0.449 -1 1 -1 m 0 0"
           fill="#ececeb"
           stroke="none"
           fill-rule="nonzero"
           fill-opacity="1"
           id="path109"
           style="fill:#ffffff" />
        <path
           d="m 38 19.996 l 2 0 c 0.551 0 1 0.449 1 1 l 0 2 c 0 0.555 -0.449 1 -1 1 l -2 0 c -0.551 0 -1 -0.445 -1 -1 l 0 -2 c 0 -0.551 0.449 -1 1 -1 m 0 0"
           fill="#ececeb"
           stroke="none"
           fill-rule="nonzero"
           fill-opacity="1"
           id="path111"
           style="fill:#ffffff" />
        <path
           d="m 8 25.996 l 2 0 c 0.551 0 1 0.449 1 1 l 0 2 c 0 0.555 -0.449 1 -1 1 l -2 0 c -0.551 0 -1 -0.445 -1 -1 l 0 -2 c 0 -0.551 0.449 -1 1 -1 m 0 0"
           fill="#ececeb"
           stroke="none"
           fill-rule="nonzero"
           fill-opacity="1"
           id="path113"
           style="fill:#ffffff" />
        <path
           d="m 14 25.996 l 2 0 c 0.551 0 1 0.449 1 1 l 0 2 c 0 0.555 -0.449 1 -1 1 l -2 0 c -0.551 0 -1 -0.445 -1 -1 l 0 -2 c 0 -0.551 0.449 -1 1 -1 m 0 0"
           fill="#ececeb"
           stroke="none"
           fill-rule="nonzero"
           fill-opacity="1"
           id="path115"
           style="fill:#ffffff" />
        <path
           d="m 20 25.996 l 2 0 c 0.551 0 1 0.449 1 1 l 0 2 c 0 0.555 -0.449 1 -1 1 l -2 0 c -0.551 0 -1 -0.445 -1 -1 l 0 -2 c 0 -0.551 0.449 -1 1 -1 m 0 0"
           fill="#ececeb"
           stroke="none"
           fill-rule="nonzero"
           fill-opacity="1"
           id="path117"
           style="fill:#ffffff" />
        <path
           d="m 26 25.996 l 2 0 c 0.551 0 1 0.449 1 1 l 0 2 c 0 0.555 -0.449 1 -1 1 l -2 0 c -0.551 0 -1 -0.445 -1 -1 l 0 -2 c 0 -0.551 0.449 -1 1 -1 m 0 0"
           fill="#ececeb"
           stroke="none"
           fill-rule="nonzero"
           fill-opacity="1"
           id="path119"
           style="fill:#ffffff" />
        <path
           d="m 32 25.996 l 2 0 c 0.551 0 1 0.449 1 1 l 0 2 c 0 0.555 -0.449 1 -1 1 l -2 0 c -0.551 0 -1 -0.445 -1 -1 l 0 -2 c 0 -0.551 0.449 -1 1 -1 m 0 0"
           fill="#ececeb"
           stroke="none"
           fill-rule="nonzero"
           fill-opacity="1"
           id="path121"
           style="fill:#ffffff" />
        <path
           d="m 38 25.996 l 2 0 c 0.551 0 1 0.449 1 1 l 0 2 c 0 0.555 -0.449 1 -1 1 l -2 0 c -0.551 0 -1 -0.445 -1 -1 l 0 -2 c 0 -0.551 0.449 -1 1 -1 m 0 0"
           fill="#ececeb"
           stroke="none"
           fill-rule="nonzero"
           fill-opacity="1"
           id="path123"
           style="fill:#ffffff" />
        <path
           d="m 14 31.996 l 20 0 c 0.551 0 1 0.449 1 1 l 0 2 c 0 0.555 -0.449 1 -1 1 l -20 0 c -0.551 0 -1 -0.445 -1 -1 l 0 -2 c 0 -0.551 0.449 -1 1 -1 m 0 0"
           fill="#ececeb"
           stroke="none"
           fill-rule="nonzero"
           fill-opacity="1"
           id="path125"
           style="fill:#ffffff" />
      </g>
    </g>
  </g>
</svg>
