<?xml version="1.0" encoding="UTF-8" standalone="no"?>
<svg
   xmlns:dc="http://purl.org/dc/elements/1.1/"
   xmlns:cc="http://creativecommons.org/ns#"
   xmlns:rdf="http://www.w3.org/1999/02/22-rdf-syntax-ns#"
   xmlns:svg="http://www.w3.org/2000/svg"
   xmlns="http://www.w3.org/2000/svg"
   xmlns:sodipodi="http://sodipodi.sourceforge.net/DTD/sodipodi-0.dtd"
   xmlns:inkscape="http://www.inkscape.org/namespaces/inkscape"
   viewBox="0 0 48 48"
   id="svg2"
   version="1.1"
   inkscape:version="0.91 r13725"
   sodipodi:docname="power_1.svg">
  <metadata
     id="metadata65">
    <rdf:RDF>
      <cc:Work
         rdf:about="">
        <dc:format>image/svg+xml</dc:format>
        <dc:type
           rdf:resource="http://purl.org/dc/dcmitype/StillImage" />
        <dc:title></dc:title>
      </cc:Work>
    </rdf:RDF>
  </metadata>
  <sodipodi:namedview
     pagecolor="#ffffff"
     bordercolor="#3861aa"
     borderopacity="1"
     objecttolerance="10"
     gridtolerance="10"
     guidetolerance="10"
     inkscape:pageopacity="0"
     inkscape:pageshadow="2"
     inkscape:window-width="1855"
     inkscape:window-height="1056"
     id="namedview63"
     showgrid="false"
     inkscape:zoom="27.812867"
     inkscape:cx="23.705524"
     inkscape:cy="24.508372"
     inkscape:window-x="65"
     inkscape:window-y="24"
     inkscape:window-maximized="1"
     inkscape:current-layer="svg2" />
  <defs
     id="defs4">
    <linearGradient
       id="linearGradient3764"
       x1="1"
       x2="47"
       gradientUnits="userSpaceOnUse"
       gradientTransform="matrix(0,-1,1,0,-1.5e-6,47.999998)">
      <stop
         stop-color="#3861aa"
         stop-opacity="1"
         id="stop7" />
      <stop
         offset="1"
         stop-color="#3861aa"
         stop-opacity="1"
         id="stop9" />
    </linearGradient>
    <clipPath
       id="clipPath-390524384">
      <g
         transform="translate(0,-1004.3622)"
         id="g12">
        <path
           d="m -24 13 c 0 1.105 -0.672 2 -1.5 2 -0.828 0 -1.5 -0.895 -1.5 -2 0 -1.105 0.672 -2 1.5 -2 0.828 0 1.5 0.895 1.5 2 z"
           transform="matrix(15.333333,0,0,11.5,414.99999,878.8622)"
           fill="#3861aa"
           id="path14" />
      </g>
    </clipPath>
    <clipPath
       id="clipPath-397554671">
      <g
         transform="translate(0,-1004.3622)"
         id="g17">
        <path
           d="m -24 13 c 0 1.105 -0.672 2 -1.5 2 -0.828 0 -1.5 -0.895 -1.5 -2 0 -1.105 0.672 -2 1.5 -2 0.828 0 1.5 0.895 1.5 2 z"
           transform="matrix(15.333333,0,0,11.5,414.99999,878.8622)"
           fill="#3861aa"
           id="path19" />
      </g>
    </clipPath>
  </defs>
  <g
     id="g29"
     style="fill:#3861aa;fill-opacity:1">
    <path
       d="m 24 1 c 12.703 0 23 10.297 23 23 c 0 12.703 -10.297 23 -23 23 -12.703 0 -23 -10.297 -23 -23 0 -12.703 10.297 -23 23 -23 z"
       fill="url(#linearGradient3764)"
       fill-opacity="1"
       id="path31"
       style="fill:#3861aa;fill-opacity:1" />
  </g>
  <g
     id="g33" />
  <g
     id="g49"
     style="fill:#ffffff">
    <g
       clip-path="url(#clipPath-397554671)"
       id="g51"
       style="fill:#ffffff">
      <!-- color: #3861aa -->
      <g
         id="g53"
         style="fill:#ffffff">
        <path
           d="m 26 9 l -4 0 l 0 15 l 4 0 m 0 -15"
           fill="#ffffff"
           stroke="none"
           fill-rule="nonzero"
           fill-opacity="1"
           id="path55"
           style="fill:#ffffff" />
        <path
           d="m 20 9.5 c -6.363 1.766 -11 7.613 -11 14.469 c 0 8.23 6.715 15.03 15 15.03 c 8.285 0 14.996 -6.797 14.996 -15.03 c 0 -6.855 -4.641 -12.703 -10.996 -14.469 l 0 3.875 c 4.184 1.645 7.25 5.75 7.25 10.594 c 0 6.316 -5.05 11.375 -11.25 11.375 c -6.207 0 -11.25 -5.063 -11.25 -11.375 c 0 -4.891 3.02 -9.04 7.25 -10.664 l 0 -3.813 m 0 0.008"
           fill="#ffffff"
           stroke="none"
           fill-rule="nonzero"
           fill-opacity="1"
           id="path57"
           style="fill:#ffffff" />
      </g>
    </g>
  </g>
</svg>
