<?xml version="1.0" encoding="UTF-8" standalone="no"?>
<svg
   xmlns:dc="http://purl.org/dc/elements/1.1/"
   xmlns:cc="http://creativecommons.org/ns#"
   xmlns:rdf="http://www.w3.org/1999/02/22-rdf-syntax-ns#"
   xmlns:svg="http://www.w3.org/2000/svg"
   xmlns="http://www.w3.org/2000/svg"
   xmlns:sodipodi="http://sodipodi.sourceforge.net/DTD/sodipodi-0.dtd"
   xmlns:inkscape="http://www.inkscape.org/namespaces/inkscape"
   viewBox="0 0 48 48"
   id="svg2"
   version="1.1"
   inkscape:version="0.91 r13725"
   sodipodi:docname="radiation_1.svg">
  <metadata
     id="metadata77">
    <rdf:RDF>
      <cc:Work
         rdf:about="">
        <dc:format>image/svg+xml</dc:format>
        <dc:type
           rdf:resource="http://purl.org/dc/dcmitype/StillImage" />
        <dc:title></dc:title>
      </cc:Work>
    </rdf:RDF>
  </metadata>
  <sodipodi:namedview
     pagecolor="#ffffff"
     bordercolor="#666666"
     borderopacity="1"
     objecttolerance="10"
     gridtolerance="10"
     guidetolerance="10"
     inkscape:pageopacity="0"
     inkscape:pageshadow="2"
     inkscape:window-width="1855"
     inkscape:window-height="1056"
     id="namedview75"
     showgrid="false"
     inkscape:zoom="8"
     inkscape:cx="-1.4967253"
     inkscape:cy="15.533992"
     inkscape:window-x="65"
     inkscape:window-y="24"
     inkscape:window-maximized="1"
     inkscape:current-layer="svg2" />
  <defs
     id="defs4">
    <linearGradient
       id="linearGradient3764"
       x1="1"
       x2="47"
       gradientUnits="userSpaceOnUse"
       gradientTransform="matrix(0,-1,1,0,-1.5e-6,47.999998)">
      <stop
         stop-color="#333"
         stop-opacity="1"
         id="stop7" />
      <stop
         offset="1"
         stop-color="#3d3d3d"
         stop-opacity="1"
         id="stop9" />
    </linearGradient>
    <clipPath
       id="clipPath-641526499">
      <g
         transform="translate(0,-1004.3622)"
         id="g12">
        <path
           d="m -24 13 c 0 1.105 -0.672 2 -1.5 2 -0.828 0 -1.5 -0.895 -1.5 -2 0 -1.105 0.672 -2 1.5 -2 0.828 0 1.5 0.895 1.5 2 z"
           transform="matrix(15.333333,0,0,11.5,414.99999,878.8622)"
           fill="#1890d0"
           id="path14" />
      </g>
    </clipPath>
    <clipPath
       id="clipPath-653257352">
      <g
         transform="translate(0,-1004.3622)"
         id="g17">
        <path
           d="m -24 13 c 0 1.105 -0.672 2 -1.5 2 -0.828 0 -1.5 -0.895 -1.5 -2 0 -1.105 0.672 -2 1.5 -2 0.828 0 1.5 0.895 1.5 2 z"
           transform="matrix(15.333333,0,0,11.5,414.99999,878.8622)"
           fill="#1890d0"
           id="path19" />
      </g>
    </clipPath>
  </defs>
  <g
     id="g29"
     style="fill:#0055a0;fill-opacity:1">
    <path
       d="m 24 1 c 12.703 0 23 10.297 23 23 c 0 12.703 -10.297 23 -23 23 -12.703 0 -23 -10.297 -23 -23 0 -12.703 10.297 -23 23 -23 z"
       fill="url(#linearGradient3764)"
       fill-opacity="1"
       id="path31"
       style="fill:#0055a0;fill-opacity:1" />
  </g>
  <g
     id="g33" />
  <g
     id="g55">
    <g
       clip-path="url(#clipPath-653257352)"
       id="g57">
      <!-- color: #3d3d3d -->
      <g
         id="g59">
        <path
           d="m 21.703 26.738 l -5.125 6.832 c 2.051 1.586 4.629 2.531 7.426 2.531 c 2.715 0 5.223 -0.902 7.246 -2.414 l -5.125 -6.953 c -1.027 1.199 -3.254 1.078 -4.418 0 m -0.004 0.004"
           fill="#f84545"
           stroke="none"
           fill-rule="nonzero"
           fill-opacity="1"
           id="path61" />
        <path
           d="m 26.445 23.816 c 0 1.367 -1.109 2.473 -2.477 2.473 c -1.367 0 -2.473 -1.109 -2.473 -2.473 c 0 -1.371 1.109 -2.477 2.473 -2.477 c 1.371 0 2.477 1.109 2.477 2.477 m 0 0"
           fill="#ffc800"
           stroke="none"
           fill-rule="nonzero"
           fill-opacity="1"
           id="path63" />
        <path
           d="m 27.535 12.426 l -2.27 7.836 c 1.414 0.242 2.621 2.254 2.359 3.707 l 8.48 0.031 c 0 -5.457 -3.609 -10.06 -8.57 -11.578 m 0 0.004"
           fill="#f84545"
           stroke="none"
           fill-rule="nonzero"
           fill-opacity="1"
           id="path65" />
        <path
           d="m 20.496 12.395 c -4.934 1.492 -8.539 6.05 -8.602 11.457 l 8.277 0.027 c -0.27 -1.488 1.152 -3.191 2.59 -3.621 m -2.266 -7.863"
           fill="#f84545"
           stroke="none"
           fill-rule="nonzero"
           fill-opacity="1"
           id="path67" />
        <path
           d="m 10.724 6.773 c 0 2.182 -1.769 3.951 -3.951 3.951 c -2.183 0 -3.951 -1.769 -3.951 -3.951 c 0 -2.183 1.768 -3.951 3.951 -3.951 c 2.182 0 3.951 1.768 3.951 3.951 m 0 0"
           transform="matrix(3.543307,0,0,3.543307,0,0)"
           stroke-opacity="1"
           fill="none"
           stroke="#ffc800"
           stroke-linejoin="miter"
           stroke-linecap="butt"
           stroke-width="0.564"
           stroke-miterlimit="4"
           id="path69" />
      </g>
      <path
         style="fill:#ffffff;fill-opacity:1"
         d="m 11.916177,23.608596 c 1.74e-4,-0.343944 0.06286,-0.994123 0.146256,-1.517046 0.407239,-2.553422 1.563069,-4.808259 3.41133,-6.654953 1.029532,-1.028658 1.987357,-1.708317 3.311364,-2.349695 0.49446,-0.239528 1.372171,-0.589774 1.616208,-0.64494 l 0.08989,-0.02032 1.112147,3.872151 c 0.611682,2.129683 1.117945,3.889563 1.12503,3.910845 0.0071,0.02128 -0.09814,0.08225 -0.233842,0.135493 -0.702931,0.275786 -1.468859,0.940965 -1.896161,1.646743 -0.32013,0.528761 -0.460835,0.987931 -0.463898,1.513857 l -0.002,0.350558 -4.108201,0 -4.108202,0 1.23e-4,-0.242694 z"
         id="path4207"
         inkscape:connector-curvature="0" />
      <path
         style="fill:#ffffff;fill-opacity:1"
         d="m 23.403543,26.206977 c -0.749007,-0.202227 -1.2926,-0.636702 -1.620273,-1.295027 -0.361199,-0.725684 -0.358919,-1.468824 0.0068,-2.209653 0.135037,-0.273557 0.221459,-0.393025 0.442157,-0.611228 0.489148,-0.483619 0.944267,-0.68534 1.60827,-0.712827 0.770567,-0.0319 1.318496,0.177755 1.850395,0.708015 0.26196,0.261152 0.335135,0.361643 0.473634,0.65044 0.19257,0.401546 0.253433,0.660585 0.253433,1.078638 0,0.418053 -0.06086,0.677092 -0.253433,1.078637 -0.138953,0.289745 -0.210815,0.388208 -0.473634,0.64896 -0.354749,0.35196 -0.666358,0.534287 -1.104764,0.646412 -0.327406,0.08374 -0.90579,0.09236 -1.182565,0.01763 z"
         id="path4209"
         inkscape:connector-curvature="0" />
      <path
         style="fill:#ffffff;fill-opacity:1"
         d="m 30.7203,23.96823 -3.074117,-0.0093 0.01217,-0.314488 c 0.02731,-0.705359 -0.190663,-1.402438 -0.661186,-2.114513 -0.375527,-0.568311 -0.951176,-1.045134 -1.459329,-1.208796 -0.186342,-0.06001 -0.247071,-0.09505 -0.23573,-0.135989 0.09684,-0.349594 2.233925,-7.717104 2.241407,-7.727158 0.02033,-0.02732 0.888465,0.288556 1.334893,0.485715 2.066058,0.91245 3.861879,2.413221 5.135935,4.292112 1.249418,1.842557 1.963189,4.002765 2.052223,6.210993 l 0.02211,0.548308 -1.14713,-0.0088 c -0.630922,-0.0048 -2.530484,-0.01297 -4.221248,-0.01809 z"
         id="path4211"
         inkscape:connector-curvature="0" />
      <path
         style="fill:#ffffff;fill-opacity:1"
         d="m 23.043997,36.051672 c -1.948598,-0.163765 -3.834975,-0.788465 -5.466231,-1.810219 -0.603423,-0.37796 -0.959939,-0.64495 -0.937901,-0.702381 0.0097,-0.02539 1.153557,-1.560589 2.541805,-3.411546 l 2.524088,-3.365375 0.111823,0.09099 c 0.180187,0.146622 0.635004,0.408988 0.848893,0.489692 0.623285,0.235178 1.432483,0.313585 2.016678,0.195407 0.509651,-0.103099 1.006717,-0.349766 1.345075,-0.667489 l 0.107864,-0.101286 2.516821,3.416443 c 1.384251,1.879044 2.528967,3.437637 2.543812,3.46354 0.01892,0.03302 -0.09934,0.132597 -0.395501,0.333039 -1.749159,1.183826 -3.673586,1.870645 -5.761747,2.056341 -0.378089,0.03362 -1.650754,0.04181 -1.995479,0.01284 z"
         id="path4213"
         inkscape:connector-curvature="0" />
      <path
         style="fill:#ffffff;fill-opacity:1"
         d="M 23.02602,38.949175 C 16.922704,38.562809 11.640227,34.451831 9.7472795,28.615272 8.7756255,25.619353 8.7756217,22.373004 9.7472688,19.374944 11.231794,14.794376 14.860194,11.18444 19.448539,9.7230383 c 3.034325,-0.9664415 6.350603,-0.9348738 9.366168,0.089157 4.80224,1.630752 8.475903,5.609705 9.708729,10.515545 0.796297,3.168743 0.542414,6.506361 -0.722731,9.50123 -1.194321,2.827214 -3.288491,5.274131 -5.904901,6.899536 -2.649144,1.645742 -5.73751,2.418955 -8.869784,2.220669 z m 2.408957,-2.009543 c 0.955384,-0.117508 2.005646,-0.355028 2.818237,-0.637352 5.378753,-1.86878 8.908626,-6.979815 8.748111,-12.666718 -0.07989,-2.830338 -1.000159,-5.387625 -2.757611,-7.662962 -0.427859,-0.55394 -1.319255,-1.473241 -1.895846,-1.955194 -1.964468,-1.642035 -4.288971,-2.640552 -6.876937,-2.954068 -0.722017,-0.08747 -2.226258,-0.08747 -2.948276,0 -2.237255,0.271029 -4.273442,1.056151 -6.112613,2.356927 -0.818589,0.578958 -1.913825,1.617156 -2.564691,2.43113 -1.540897,1.927046 -2.474846,4.167974 -2.779671,6.669575 -0.07827,0.64236 -0.08959,2.233134 -0.01995,2.804457 0.317694,2.606435 1.16773,4.714234 2.692447,6.676353 2.152927,2.770545 5.450387,4.604118 8.875375,4.935207 0.21697,0.02097 0.451121,0.04464 0.520333,0.0526 0.230127,0.02645 1.990666,-0.01177 2.301094,-0.04995 z"
         id="path4215"
         inkscape:connector-curvature="0" />
      <path
         style="fill:#ffffff;fill-opacity:1"
         d="m 12.683409,19.689582 c 0,-0.0042 0.06815,-0.178419 0.107095,-0.273831 0.771214,-1.889319 2.023512,-3.569598 3.619467,-4.856443 0.288193,-0.232374 0.574932,-0.442675 0.897843,-0.658495 0.110187,-0.07364 0.132454,-0.08706 0.144471,-0.08706 0.01368,0 0.0127,9.68e-4 -0.02675,0.02623 -0.522769,0.334783 -1.038441,0.73578 -1.533045,1.192127 -0.265686,0.245135 -0.574129,0.553668 -0.806829,0.807065 -1.039946,1.13244 -1.839222,2.416453 -2.375625,3.816372 -0.0087,0.02274 -0.01579,0.0356 -0.02005,0.03642 -0.0036,6.97e-4 -0.0066,-3.73e-4 -0.0066,-0.0024 z"
         id="path4217"
         inkscape:connector-curvature="0" />
      <path
         style="fill:#ffffff;fill-opacity:1"
         d="m 11.718565,19.691299 c 0,-7.46e-4 0.01565,-0.04513 0.03477,-0.09863 0.273479,-0.765098 0.615386,-1.495249 1.030563,-2.200792 0.385566,-0.655222 0.872229,-1.33491 1.331771,-1.85999 0.135778,-0.155142 0.325032,-0.360582 0.328749,-0.356864 0.0012,0.0012 -0.0084,0.01316 -0.02138,0.02653 -0.109578,0.112827 -0.38044,0.427526 -0.560541,0.651261 -0.760257,0.944445 -1.381753,1.985613 -1.853722,3.105469 -0.07962,0.188923 -0.17493,0.43326 -0.247218,0.633789 -0.01994,0.05532 -0.03777,0.100586 -0.03962,0.100586 -0.0019,0 -0.0034,-6.11e-4 -0.0034,-0.0014 z"
         id="path4219"
         inkscape:connector-curvature="0" />
      <path
         style="fill:#ffffff;fill-opacity:1"
         d="m 9.7263776,19.37876 c 0,-0.0046 0.1089644,-0.324379 0.1432901,-0.420479 0.3636603,-1.01813 0.8349233,-1.991958 1.4035803,-2.900391 0.365585,-0.584024 0.796921,-1.179028 1.210574,-1.669922 0.265845,-0.315485 0.453491,-0.524394 0.716647,-0.797852 0.07366,-0.07655 0.08712,-0.08887 0.09706,-0.08887 0.01086,0 0.0085,0.0032 -0.03986,0.05371 -0.225376,0.235488 -0.370535,0.3931 -0.535141,0.581055 -1.317118,1.503943 -2.3193,3.254491 -2.9457817,5.145508 -0.029902,0.09026 -0.033428,0.09863 -0.041524,0.09863 -0.00487,0 -0.00885,-6.28e-4 -0.00885,-0.0014 z"
         id="path4221"
         inkscape:connector-curvature="0" />
      <path
         style="fill:#ffffff;fill-opacity:1"
         d="m 25.79669,20.437372 c -0.09027,-0.04492 -0.172004,-0.07859 -0.267578,-0.110208 -0.07554,-0.02499 -0.180007,-0.05239 -0.231807,-0.0608 -0.02808,-0.0046 -0.02864,-0.0049 -0.02662,-0.01497 0.0011,-0.0057 0.278153,-0.963365 0.615596,-2.1282 0.337443,-1.164835 0.613533,-2.118794 0.613533,-2.119909 0,-0.0011 0.0024,-0.002 0.0054,-0.002 0.0041,0 1.13e-4,0.0183 -0.01584,0.07324 -0.10028,0.345212 -0.821764,2.836128 -0.938239,3.239258 -0.213745,0.739791 -0.250566,0.869486 -0.250566,0.882577 0,0.0075 0.0044,0.01664 0.01218,0.02556 0.0237,0.02699 0.07501,0.05006 0.226433,0.101831 0.10231,0.03498 0.168831,0.06284 0.265259,0.111111 0.06272,0.0314 0.07723,0.03975 0.06741,0.03879 -0.0016,-1.56e-4 -0.03545,-0.01647 -0.07519,-0.03625 z"
         id="path4223"
         inkscape:connector-curvature="0" />
      <path
         style="fill:#ffffff;fill-opacity:1"
         d="m 22.59202,20.300094 c 0.07371,-0.03553 0.126208,-0.06805 0.13432,-0.08321 0.0039,-0.0072 -0.03867,-0.161944 -0.162618,-0.591845 -0.154594,-0.536181 -0.714928,-2.485203 -1.232067,-4.285525 -0.117291,-0.408329 -0.212214,-0.745171 -0.210939,-0.748539 0.0014,-0.0037 0.0036,-0.0029 0.0056,0.0022 0.0041,0.01024 1.627225,5.645684 1.629083,5.655999 8.99e-4,0.005 -0.0222,0.01515 -0.07048,0.03097 -0.0395,0.01295 -0.08889,0.03011 -0.109762,0.03814 -0.06181,0.02379 -0.05503,0.01649 0.01685,-0.01816 z"
         id="path4225"
         inkscape:connector-curvature="0" />
      <path
         style="fill:#ffffff;fill-opacity:1"
         d="m 23.742826,26.251143 c -0.190786,-0.01062 -0.319778,-0.03518 -0.502758,-0.09572 -0.384714,-0.127285 -0.706316,-0.318387 -0.971474,-0.577265 -0.205556,-0.200689 -0.352916,-0.406397 -0.490433,-0.684624 -0.247075,-0.499887 -0.319106,-1.013718 -0.214568,-1.530614 0.04485,-0.221779 0.114682,-0.423222 0.226079,-0.652202 0.131506,-0.270312 0.212572,-0.38401 0.425318,-0.596526 0.121853,-0.121721 0.191676,-0.184935 0.290399,-0.262911 0.293901,-0.232135 0.610511,-0.374353 0.963022,-0.432581 0.38893,-0.06424 0.815879,-0.05276 1.149205,0.0309 0.386917,0.09711 0.711316,0.28803 1.049482,0.617654 0.278116,0.27109 0.370459,0.399544 0.520403,0.723909 0.15372,0.332531 0.208871,0.549947 0.224554,0.885234 0.01367,0.292232 -0.01226,0.55921 -0.07539,0.776213 -0.06522,0.224195 -0.213087,0.548314 -0.332027,0.727801 -0.128832,0.194414 -0.454782,0.515449 -0.688827,0.678439 -0.176417,0.122859 -0.335235,0.202478 -0.542708,0.272073 -0.213192,0.07151 -0.377259,0.101909 -0.638053,0.11821 -0.0821,0.0051 -0.314746,0.0063 -0.392224,0.002 z"
         id="path4227"
         inkscape:connector-curvature="0" />
      <path
         style="fill:#ffffff;fill-opacity:1"
         d="m 23.822928,26.282091 c -0.604331,-0.03612 -1.169454,-0.289615 -1.597776,-0.716718 -0.418762,-0.417571 -0.670326,-0.95968 -0.719544,-1.550588 -0.01316,-0.157963 -0.0048,-0.404813 0.01931,-0.567746 0.1184,-0.801387 0.630661,-1.49865 1.364407,-1.857159 0.245695,-0.120046 0.509779,-0.197285 0.795495,-0.232664 0.09713,-0.01203 0.364209,-0.01674 0.47047,-0.0083 0.745816,0.05925 1.401991,0.431861 1.836582,1.042907 0.389627,0.547824 0.5361,1.251594 0.399867,1.921267 -0.141321,0.694686 -0.581282,1.298288 -1.205344,1.653668 -0.06974,0.03972 -0.228834,0.115781 -0.30563,0.146127 -0.3327,0.13147 -0.701663,0.190485 -1.057838,0.1692 z m 0.406034,-0.03502 c 0.253361,-0.02329 0.440037,-0.06625 0.652827,-0.150227 0.307798,-0.121474 0.540876,-0.283341 0.841751,-0.584576 0.223442,-0.223709 0.294434,-0.319919 0.41526,-0.562771 0.1917,-0.385303 0.259817,-0.628508 0.27804,-0.992713 0.01932,-0.386077 -0.02779,-0.690142 -0.156197,-1.00818 -0.09606,-0.237918 -0.211573,-0.454269 -0.311785,-0.583951 -0.08552,-0.110668 -0.320195,-0.349479 -0.449058,-0.456969 -0.366773,-0.305942 -0.728477,-0.4637 -1.185212,-0.516934 -0.202125,-0.02356 -0.478886,-0.0225 -0.69702,0.0027 -0.417998,0.04822 -0.741313,0.174357 -1.060837,0.413863 -0.127322,0.09544 -0.198985,0.158609 -0.341806,0.301307 -0.177169,0.177016 -0.254014,0.274344 -0.345874,0.438065 -0.437537,0.779818 -0.472077,1.572522 -0.10176,2.335449 0.135593,0.279349 0.288035,0.493112 0.498479,0.698995 0.278604,0.272566 0.617558,0.468806 1.029671,0.596135 0.150643,0.04654 0.25788,0.06596 0.42805,0.0775 0.100689,0.0068 0.396603,0.0023 0.505471,-0.0077 z"
         id="path4229"
         inkscape:connector-curvature="0" />
      <path
         style="fill:#ffffff;fill-opacity:1"
         d="m 19.063768,23.873607 c -0.590959,-0.0022 -1.631939,-0.0058 -2.313289,-0.008 -0.702603,-0.0023 -1.238818,-0.0062 -1.238818,-0.0089 0,-0.0028 0.991707,-0.0048 2.311908,-0.0048 l 2.311908,0 7.78e-4,-0.122915 c 7.25e-4,-0.114381 0.0011,-0.118696 0.0054,-0.06215 0.0046,0.05974 0.01912,0.175865 0.0251,0.200255 0.0027,0.01084 0.001,0.01231 -0.01274,0.01148 -0.0087,-5.22e-4 -0.499303,-0.0027 -1.090262,-0.0049 z"
         id="path4231"
         inkscape:connector-curvature="0" />
      <path
         style="fill:#ffffff;fill-opacity:1"
         d="m 17.347323,32.584312 c 0.400456,-0.540747 4.355097,-5.815677 4.360043,-5.815677 0.0016,0 0.03458,0.02562 0.07319,0.05694 0.117824,0.09556 0.225903,0.168409 0.41324,0.27855 0.328346,0.193046 0.531313,0.278312 0.858007,0.360447 0.51332,0.129056 1.091076,0.164636 1.527949,0.0941 0.286307,-0.04623 0.571575,-0.139119 0.842452,-0.27432 0.269053,-0.134292 0.456005,-0.265254 0.664361,-0.465395 0.02662,-0.02557 0.04931,-0.04549 0.05042,-0.04426 0.0011,0.0012 0.419958,0.569666 0.930772,1.263193 l 0.928752,1.260958 0,1.662763 0,1.662762 -5.339426,0 -5.339426,0 0.02966,-0.04005 z"
         id="path4233"
         inkscape:connector-curvature="0" />
      <path
         style="fill:#ffffff;fill-opacity:1"
         d=""
         id="path4235"
         inkscape:connector-curvature="0" />
      <path
         style="fill:#ffffff;fill-opacity:1"
         d="m 19.498363,29.680511 2.207888,-2.943852 0.04463,0.03971 c 0.04649,0.04135 0.155952,0.129242 0.206479,0.165781 0.01609,0.01164 0.02801,0.02241 0.02649,0.02393 -0.0043,0.0043 -0.114847,-0.07507 -0.198773,-0.142705 -0.04164,-0.03356 -0.07801,-0.06022 -0.08083,-0.05926 -0.0055,0.0019 -2.895654,3.855313 -3.826609,5.102039 -0.40522,0.542666 -0.569153,0.758206 -0.576667,0.758206 -0.0076,0 0.606206,-0.822272 2.19739,-2.943852 z"
         id="path4237"
         inkscape:connector-curvature="0" />
      <path
         style="fill:#ffffff;fill-opacity:1"
         d=""
         id="path4239"
         inkscape:connector-curvature="0" />
      <path
         style="fill:#ffffff;fill-opacity:1"
         d="m 17.330306,32.606409 c 0.0074,-0.0099 0.178629,-0.239201 0.380431,-0.509614 0.49492,-0.663188 2.103128,-2.80998 3.144646,-4.197779 0.467171,-0.622494 0.848611,-1.132598 0.847645,-1.133565 -9.66e-4,-9.66e-4 -0.02764,0.03229 -0.05928,0.07391 -0.08895,0.117015 -3.240321,4.319466 -3.681196,4.908991 -0.21524,0.287812 -0.392532,0.522107 -0.393983,0.520656 -0.0037,-0.0037 0.308901,-0.422019 2.344593,-3.137357 l 1.792251,-2.390619 0.0152,0.01242 c 0.06682,0.05461 0.138033,0.116865 0.136006,0.118892 -0.0014,0.0014 -0.03057,-0.01937 -0.06493,-0.04606 -0.08094,-0.06288 -0.07627,-0.05946 -0.07627,-0.05598 0,0.0017 0.03545,0.03122 0.07878,0.06568 0.241633,0.192175 0.67638,0.439703 0.929398,0.529164 0.327206,0.115692 0.695462,0.190229 1.079995,0.218599 0.156527,0.01155 0.498773,0.0086 0.624243,-0.0053 0.510386,-0.05675 1.018031,-0.253918 1.411546,-0.548247 0.08012,-0.05993 0.125843,-0.09873 0.222621,-0.188937 0.04046,-0.03771 0.0755,-0.06637 0.07787,-0.06368 0.0024,0.0027 0.421082,0.570891 0.930475,1.262679 l 0.926169,1.257795 0,1.663164 0,1.663163 -5.339864,0 -5.339864,0 0.01352,-0.01795 z"
         id="path4241"
         inkscape:connector-curvature="0" />
      <path
         style="fill:#ffffff;fill-opacity:1"
         d="m 22.762268,27.374324 c -0.09032,-0.03137 -0.207818,-0.08004 -0.261035,-0.108135 -0.03582,-0.01891 -0.01048,-0.01235 0.03791,0.0098 0.06834,0.0313 0.168018,0.07081 0.261794,0.103761 0.04558,0.01602 0.07789,0.02911 0.07182,0.02911 -0.0061,-6e-6 -0.05579,-0.01555 -0.110485,-0.03454 z"
         id="path4243"
         inkscape:connector-curvature="0" />
      <path
         style="fill:#ffffff;fill-opacity:1"
         d=""
         id="path4245"
         inkscape:connector-curvature="0" />
      <path
         style="fill:#ffffff;fill-opacity:1"
         d="m 22.933135,27.429288 c -0.03051,-0.009 -0.05776,-0.01881 -0.06055,-0.02181 -0.0043,-0.0046 -0.0038,-0.005 0.0027,-0.0027 0.0043,0.0015 0.03418,0.0108 0.06641,0.02059 0.03223,0.0098 0.05933,0.01846 0.06022,0.01927 0.0052,0.0046 -0.01999,-9.84e-4 -0.06882,-0.01538 z"
         id="path4247"
         inkscape:connector-curvature="0" />
      <path
         style="fill:#ffffff;fill-opacity:1"
         d="m 22.428827,27.2303 c -0.02858,-0.01498 -0.05125,-0.02796 -0.05036,-0.02884 8.81e-4,-8.82e-4 0.02648,0.01055 0.05689,0.0254 0.03041,0.01485 0.05307,0.02783 0.05036,0.02884 -0.0027,0.001 -0.02831,-0.01042 -0.05689,-0.0254 z"
         id="path4249"
         inkscape:connector-curvature="0" />
      <path
         style="fill:#ffffff;fill-opacity:1"
         d="m 22.016045,26.990961 c -0.02143,-0.01391 -0.03576,-0.02529 -0.03184,-0.02529 0.0039,0 0.02145,0.01 0.03897,0.02212 0.03684,0.02558 0.04072,0.0287 0.03556,0.02857 -0.002,-5.3e-5 -0.02125,-0.01148 -0.04268,-0.02539 z"
         id="path4251"
         inkscape:connector-curvature="0" />
      <path
         style="fill:#ffffff;fill-opacity:1"
         d="m 27.104264,28.080407 c -0.525061,-0.71301 -0.957794,-1.29972 -0.961629,-1.3038 -0.0082,-0.0087 -4.26e-4,-0.01484 -0.109341,0.08632 -0.07882,0.07321 -0.143803,0.127017 -0.222934,0.184602 -0.06292,0.04579 -0.162815,0.111583 -0.165434,0.108964 -9.41e-4,-9.41e-4 0.02742,-0.0218 0.06302,-0.04634 0.07009,-0.04833 0.147418,-0.108848 0.212304,-0.166153 0.03886,-0.03432 0.15052,-0.145761 0.187095,-0.186728 0.01406,-0.01575 0.01777,-0.01806 0.02195,-0.01367 0.0028,0.0029 0.436984,0.591507 0.964919,1.308011 0.527934,0.716503 0.961551,1.304847 0.963592,1.307429 0.002,0.0026 0.0031,0.0076 0.0024,0.01122 -7.73e-4,0.0039 -0.388223,-0.518897 -0.955954,-1.289851 z"
         id="path4253"
         inkscape:connector-curvature="0" />
      <path
         style="fill:#ffffff;fill-opacity:1"
         d=""
         id="path4255"
         inkscape:connector-curvature="0" />
      <path
         style="fill:#ffffff;fill-opacity:1"
         d="m 24.244466,27.58405 c 0.222955,-0.01313 0.500179,-0.05939 0.68873,-0.11493 0.01464,-0.0043 0.02865,-0.0072 0.03113,-0.0063 0.01116,0.0037 -0.19105,0.0557 -0.297982,0.07659 -0.131079,0.02561 -0.335253,0.04848 -0.416016,0.04658 -0.02502,-5.86e-4 -0.02552,-7.48e-4 -0.0059,-0.0019 z"
         id="path4257"
         inkscape:connector-curvature="0" />
    </g>
  </g>
</svg>
