<?xml version="1.0" encoding="UTF-8" standalone="no"?>
<svg
   xmlns:dc="http://purl.org/dc/elements/1.1/"
   xmlns:cc="http://creativecommons.org/ns#"
   xmlns:rdf="http://www.w3.org/1999/02/22-rdf-syntax-ns#"
   xmlns:svg="http://www.w3.org/2000/svg"
   xmlns="http://www.w3.org/2000/svg"
   xmlns:sodipodi="http://sodipodi.sourceforge.net/DTD/sodipodi-0.dtd"
   xmlns:inkscape="http://www.inkscape.org/namespaces/inkscape"
   viewBox="0 0 48 48"
   id="svg2"
   version="1.1"
   inkscape:version="0.91 r13725"
   sodipodi:docname="search_1.svg">
  <metadata
     id="metadata69">
    <rdf:RDF>
      <cc:Work
         rdf:about="">
        <dc:format>image/svg+xml</dc:format>
        <dc:type
           rdf:resource="http://purl.org/dc/dcmitype/StillImage" />
        <dc:title></dc:title>
      </cc:Work>
    </rdf:RDF>
  </metadata>
  <sodipodi:namedview
     pagecolor="#ffffff"
     bordercolor="#666666"
     borderopacity="1"
     objecttolerance="10"
     gridtolerance="10"
     guidetolerance="10"
     inkscape:pageopacity="0"
     inkscape:pageshadow="2"
     inkscape:window-width="1855"
     inkscape:window-height="1056"
     id="namedview67"
     showgrid="false"
     inkscape:zoom="13.906433"
     inkscape:cx="16.093573"
     inkscape:cy="34.697646"
     inkscape:window-x="65"
     inkscape:window-y="24"
     inkscape:window-maximized="1"
     inkscape:current-layer="g51" />
  <defs
     id="defs4">
    <linearGradient
       id="linearGradient3764"
       x1="1"
       x2="47"
       gradientUnits="userSpaceOnUse"
       gradientTransform="matrix(0,-1,1,0,-1.5e-6,47.999998)">
      <stop
         stop-color="#46b0a9"
         stop-opacity="1"
         id="stop7" />
      <stop
         offset="1"
         stop-color="#51b9b4"
         stop-opacity="1"
         id="stop9" />
    </linearGradient>
    <clipPath
       id="clipPath-972308115">
      <g
         transform="translate(0,-1004.3622)"
         id="g12">
        <path
           d="m -24 13 c 0 1.105 -0.672 2 -1.5 2 -0.828 0 -1.5 -0.895 -1.5 -2 0 -1.105 0.672 -2 1.5 -2 0.828 0 1.5 0.895 1.5 2 z"
           transform="matrix(15.333333,0,0,11.5,414.99999,878.8622)"
           fill="#1890d0"
           id="path14" />
      </g>
    </clipPath>
    <clipPath
       id="clipPath-984656189">
      <g
         transform="translate(0,-1004.3622)"
         id="g17">
        <path
           d="m -24 13 c 0 1.105 -0.672 2 -1.5 2 -0.828 0 -1.5 -0.895 -1.5 -2 0 -1.105 0.672 -2 1.5 -2 0.828 0 1.5 0.895 1.5 2 z"
           transform="matrix(15.333333,0,0,11.5,414.99999,878.8622)"
           fill="#1890d0"
           id="path19" />
      </g>
    </clipPath>
  </defs>
  <g
     id="g29"
     style="fill:#0055a0;fill-opacity:1">
    <path
       d="m 24 1 c 12.703 0 23 10.297 23 23 c 0 12.703 -10.297 23 -23 23 -12.703 0 -23 -10.297 -23 -23 0 -12.703 10.297 -23 23 -23 z"
       fill="url(#linearGradient3764)"
       fill-opacity="1"
       id="path31"
       style="fill:#0055a0;fill-opacity:1" />
  </g>
  <g
     id="g33" />
  <g
     id="g51">
    <g
       clip-path="url(#clipPath-984656189)"
       id="g53">
      <!-- color: #51b9b4 -->
      <g
         id="g55">
        <path
           d="m 7.116 4.847 c 0.627 0.625 0.627 1.642 0 2.269 c -0.627 0.627 -1.644 0.627 -2.269 0 c -0.627 -0.627 -0.627 -1.644 0 -2.269 c 0.625 -0.627 1.642 -0.627 2.269 0 m 0 0"
           transform="matrix(3.543307,0,0,3.543307,0,0)"
           stroke-opacity="1"
           fill="none"
           stroke="#f9f9f9"
           stroke-linejoin="miter"
           stroke-linecap="butt"
           stroke-width="0.288"
           stroke-miterlimit="4"
           id="path57" />
        <path
           d="m 28.24 29.719 l 1.48 -1.48 l 3.277 3.277 l -1.48 1.48 m -3.277 -3.277"
           fill="#f9f9f9"
           stroke="none"
           fill-rule="nonzero"
           fill-opacity="1"
           id="path59" />
        <path
           d="m 25.09 26.13 l 1.043 -1.043 l 3.277 3.277 l -1.043 1.043 m -3.277 -3.277"
           fill="#f9f9f9"
           stroke="none"
           fill-rule="nonzero"
           fill-opacity="1"
           id="path61" />
      </g>
    </g>
    <path
       style="fill:#ffffff;fill-opacity:1"
       d="m 18.233555,26.633804 c -0.540471,-0.294516 -1.003658,-0.645877 -1.452222,-1.101613 -0.47226,-0.479812 -0.826459,-0.974526 -1.126179,-1.572954 -1.022195,-2.04093 -0.832105,-4.496648 0.491674,-6.351791 0.327307,-0.458687 0.744809,-0.899756 1.186169,-1.253123 0.923831,-0.73965 2.034512,-1.194636 3.219629,-1.318908 0.350004,-0.0367 0.839822,-0.04076 1.182006,-0.0098 1.266811,0.11464 2.452978,0.603962 3.42018,1.410902 1.143407,0.95395 1.894232,2.256722 2.144403,3.720797 0.0601,0.351715 0.08318,0.638876 0.08318,1.03477 0,0.723199 -0.102566,1.340063 -0.336549,2.024113 -0.491361,1.436493 -1.524968,2.663256 -2.867834,3.403761 l -0.140853,0.07767 -2.843377,-9e-5 -2.843378,-9e-5 -0.116852,-0.06368 0,2.6e-5 z m 3.260979,-0.269076 c 1.11112,-0.0669 2.160421,-0.480905 3.009626,-1.187454 1.012135,-0.84211 1.663568,-2.031706 1.827918,-3.338002 0.167435,-1.33081 -0.186127,-2.673994 -0.984279,-3.739277 -0.122203,-0.163103 -0.264806,-0.331955 -0.385533,-0.456497 l -0.102693,-0.10594 0.03976,-0.04237 0.03976,-0.04237 -0.04227,0.03966 -0.04227,0.03966 -0.107608,-0.103748 c -0.612414,-0.590439 -1.431332,-1.041129 -2.281991,-1.255887 -0.601838,-0.151941 -1.257309,-0.194036 -1.885349,-0.121079 -1.404099,0.163108 -2.684727,0.905305 -3.542613,2.053145 -0.511209,0.68399 -0.847712,1.498592 -0.969093,2.345967 -0.03969,0.277095 -0.04508,0.3657 -0.04508,0.741563 0,0.384613 0.0056,0.471302 0.04944,0.768529 0.191611,1.298413 0.876361,2.476634 1.92163,3.306465 0.977084,0.775698 2.244973,1.173251 3.500658,1.097645 z"
       id="path4197"
       inkscape:connector-curvature="0" />
    <path
       style="fill:#ffffff;fill-opacity:1"
       d="m 26.729372,27.761196 -1.626892,-1.62704 0.514781,-0.514781 0.514781,-0.514781 1.627196,1.627196 1.627196,1.627196 -0.515086,0.514625 -0.515085,0.514626 -1.626891,-1.627041 z"
       id="path4199"
       inkscape:connector-curvature="0" />
    <path
       style="fill:#ffffff;fill-opacity:1"
       d="M 29.881979,31.346007 28.255,29.718878 l 0.730882,-0.730882 0.730883,-0.730883 1.633363,1.633364 1.633363,1.633363 -0.724313,0.724648 c -0.398372,0.398556 -0.730142,0.724647 -0.737266,0.724647 -0.0071,0 -0.745094,-0.732208 -1.639933,-1.627128 z"
       id="path4201"
       inkscape:connector-curvature="0" />
  </g>
</svg>
