<?xml version="1.0" encoding="UTF-8" standalone="no"?>
<svg
   xmlns:dc="http://purl.org/dc/elements/1.1/"
   xmlns:cc="http://creativecommons.org/ns#"
   xmlns:rdf="http://www.w3.org/1999/02/22-rdf-syntax-ns#"
   xmlns:svg="http://www.w3.org/2000/svg"
   xmlns="http://www.w3.org/2000/svg"
   xmlns:sodipodi="http://sodipodi.sourceforge.net/DTD/sodipodi-0.dtd"
   xmlns:inkscape="http://www.inkscape.org/namespaces/inkscape"
   viewBox="0 0 48 48"
   id="svg2"
   version="1.1"
   inkscape:version="0.48.4 r9939"
   width="100%"
   height="100%"
   sodipodi:docname="time.svg">
  <metadata
     id="metadata81">
    <rdf:RDF>
      <cc:Work
         rdf:about="">
        <dc:format>image/svg+xml</dc:format>
        <dc:type
           rdf:resource="http://purl.org/dc/dcmitype/StillImage" />
      </cc:Work>
    </rdf:RDF>
  </metadata>
  <sodipodi:namedview
     pagecolor="#ffffff"
     bordercolor="#666666"
     borderopacity="1"
     objecttolerance="10"
     gridtolerance="10"
     guidetolerance="10"
     inkscape:pageopacity="0"
     inkscape:pageshadow="2"
     inkscape:window-width="1855"
     inkscape:window-height="1056"
     id="namedview79"
     showgrid="false"
     inkscape:zoom="9.8333333"
     inkscape:cx="85.254529"
     inkscape:cy="21.552264"
     inkscape:window-x="65"
     inkscape:window-y="24"
     inkscape:window-maximized="1"
     inkscape:current-layer="svg2" />
  <defs
     id="defs4">
    <linearGradient
       id="linearGradient3764"
       x1="1"
       x2="47"
       gradientUnits="userSpaceOnUse"
       gradientTransform="matrix(0,-1,1,0,-1.5e-6,47.999998)">
      <stop
         stop-color="#1861aa"
         stop-opacity="1"
         id="stop7" />
      <stop
         offset="1"
         stop-color="#1861aa"
         stop-opacity="1"
         id="stop9" />
    </linearGradient>
    <clipPath
       id="clipPath-227146157">
      <g
         transform="translate(0,-1004.3622)"
         id="g12">
        <path
           d="m -24 13 c 0 1.105 -0.672 2 -1.5 2 -0.828 0 -1.5 -0.895 -1.5 -2 0 -1.105 0.672 -2 1.5 -2 0.828 0 1.5 0.895 1.5 2 z"
           transform="matrix(15.333333,0,0,11.5,414.99999,878.8622)"
           fill="#ffffff"
           id="path14" />
      </g>
    </clipPath>
    <clipPath
       id="clipPath-235619892">
      <g
         transform="translate(0,-1004.3622)"
         id="g17">
        <path
           d="m -24 13 c 0 1.105 -0.672 2 -1.5 2 -0.828 0 -1.5 -0.895 -1.5 -2 0 -1.105 0.672 -2 1.5 -2 0.828 0 1.5 0.895 1.5 2 z"
           transform="matrix(15.333333,0,0,11.5,414.99999,878.8622)"
           fill="#ffffff"
           id="path19" />
      </g>
    </clipPath>
  </defs>
  <g
     id="g29">
    <path
       d="m 24 1 c 12.703 0 23 10.297 23 23 c 0 12.703 -10.297 23 -23 23 -12.703 0 -23 -10.297 -23 -23 0 -12.703 10.297 -23 23 -23 z"
       fill="#1861aa"
       fill-opacity="1"
       id="path31" />
  </g>
  <g
     id="g33" />
  <g
     id="g57">
    <g
       clip-path="url(#clipPath-235619892)"
       id="g59">
      <!-- color: #1861aa -->
      <g
         id="g61">
        <path
           d="m 24 6 c 9.941 0 18 8.06 18 18 c 0 9.941 -8.06 18 -18 18 c -9.941 0 -18 -8.06 -18 -18 c 0 -9.941 8.06 -18 18 -18 m 0 0"
           fill="#ffffff"
           stroke="none"
           fill-rule="evenodd"
           fill-opacity="1"
           id="path63" />
        <path
           d="m 22.473 23.738 l -5.211 -5.211 c -0.348 -0.344 -0.348 -0.906 0 -1.25 l 0.039 -0.043 c 0.344 -0.344 0.906 -0.344 1.254 0 l 5.211 5.211 c 0.344 0.348 0.344 0.91 0 1.254 l -0.043 0.039 c -0.344 0.348 -0.906 0.348 -1.25 0 m 0 0"
           fill="#1861aa"
           stroke="none"
           fill-rule="nonzero"
           fill-opacity="1"
           id="path65" />
        <path
           d="m 23.887 23 l 13.227 0 c 0.492 0 0.887 0.395 0.887 0.887 l 0 0.227 c 0 0.488 -0.395 0.887 -0.887 0.887 l -13.227 0 c -0.488 0 -0.887 -0.398 -0.887 -0.887 l 0 -0.227 c 0 -0.492 0.398 -0.887 0.887 -0.887 m 0 0"
           fill="#1861aa"
           stroke="none"
           fill-rule="nonzero"
           fill-opacity="1"
           id="path67" />
        <path
           d="m 16.555 36.28 l 7.105 -13.09 c 0.117 -0.215 0.383 -0.285 0.59 -0.16 l 0.063 0.039 c 0.207 0.129 0.281 0.406 0.164 0.621 l -7.105 13.09 c -0.117 0.215 -0.379 0.285 -0.59 0.16 l -0.059 -0.039 c -0.211 -0.129 -0.285 -0.406 -0.168 -0.621 m 0 0"
           fill="#1861aa"
           stroke="none"
           fill-rule="nonzero"
           fill-opacity="1"
           id="path69" />
        <path
           d="m 28 24 c 0 2.211 -1.789 4 -4 4 c -2.211 0 -4 -1.789 -4 -4 c 0 -2.211 1.789 -4 4 -4 c 2.211 0 4 1.789 4 4 m 0 0"
           fill="#1861aa"
           stroke="none"
           fill-rule="nonzero"
           fill-opacity="1"
           id="path71" />
        <path
           d="m 26 24 c 0 1.105 -0.895 2 -2 2 c -1.105 0 -2 -0.895 -2 -2 c 0 -1.105 0.895 -2 2 -2 c 1.105 0 2 0.895 2 2 m 0 0"
           fill="#ffffff"
           stroke="none"
           fill-rule="nonzero"
           fill-opacity="1"
           id="path73" />
      </g>
    </g>
  </g>
</svg>
