<?xml version="1.0" encoding="UTF-8" standalone="no"?>
<svg
   xmlns:dc="http://purl.org/dc/elements/1.1/"
   xmlns:cc="http://creativecommons.org/ns#"
   xmlns:rdf="http://www.w3.org/1999/02/22-rdf-syntax-ns#"
   xmlns:svg="http://www.w3.org/2000/svg"
   xmlns="http://www.w3.org/2000/svg"
   xmlns:sodipodi="http://sodipodi.sourceforge.net/DTD/sodipodi-0.dtd"
   xmlns:inkscape="http://www.inkscape.org/namespaces/inkscape"
   viewBox="0 0 48 48"
   id="svg2"
   version="1.1"
   inkscape:version="0.91 r13725"
   width="100%"
   height="100%"
   sodipodi:docname="2017-02-04T2132Z_WhatsApp.svg">
  <sodipodi:namedview
     pagecolor="#ffffff"
     bordercolor="#666666"
     borderopacity="1"
     objecttolerance="10"
     gridtolerance="10"
     guidetolerance="10"
     inkscape:pageopacity="0"
     inkscape:pageshadow="2"
     inkscape:window-width="1615"
     inkscape:window-height="1026"
     id="namedview16"
     showgrid="false"
     inkscape:zoom="4.9166667"
     inkscape:cx="63.72088"
     inkscape:cy="3.0839603"
     inkscape:window-x="1115"
     inkscape:window-y="110"
     inkscape:window-maximized="1"
     inkscape:current-layer="svg2" />
  <metadata
     id="metadata68">
    <rdf:RDF>
      <cc:Work
         rdf:about="">
        <dc:format>image/svg+xml</dc:format>
        <dc:type
           rdf:resource="http://purl.org/dc/dcmitype/StillImage" />
        <dc:title></dc:title>
      </cc:Work>
    </rdf:RDF>
  </metadata>
  <defs
     id="defs4">
    <linearGradient
       id="linearGradient3764"
       x1="1"
       x2="47"
       gradientUnits="userSpaceOnUse"
       gradientTransform="matrix(0,-1,1,0,-1.5e-6,47.999998)">
      <stop
         style="stop-color:#3861aa;stop-opacity:1"
         id="stop7" />
      <stop
         offset="1"
         style="stop-color:#3861aa;stop-opacity:1"
         id="stop9" />
    </linearGradient>
    <clipPath
       id="clipPath-057129763">
      <g
         transform="translate(0,-1004.3622)"
         id="g12">
        <path
           d="m -24 13 c 0 1.105 -0.672 2 -1.5 2 -0.828 0 -1.5 -0.895 -1.5 -2 0 -1.105 0.672 -2 1.5 -2 0.828 0 1.5 0.895 1.5 2 z"
           transform="matrix(15.333333,0,0,11.5,414.99999,878.8622)"
           style="fill:#3861aa"
           id="path14" />
      </g>
    </clipPath>
    <clipPath
       id="clipPath-064426159">
      <g
         transform="translate(0,-1004.3622)"
         id="g17">
        <path
           d="m -24 13 c 0 1.105 -0.672 2 -1.5 2 -0.828 0 -1.5 -0.895 -1.5 -2 0 -1.105 0.672 -2 1.5 -2 0.828 0 1.5 0.895 1.5 2 z"
           transform="matrix(15.333333,0,0,11.5,414.99999,878.8622)"
           style="fill:#3861aa"
           id="path19" />
      </g>
    </clipPath>
  </defs>
  <g
     id="g29">
    <path
       d="m 24 1 c 12.703 0 23 10.297 23 23 c 0 12.703 -10.297 23 -23 23 -12.703 0 -23 -10.297 -23 -23 0 -12.703 10.297 -23 23 -23 z"
       style="fill:url(#linearGradient3764);fill-opacity:1"
       id="path31" />
  </g>
  <path
     inkscape:connector-curvature="0"
     d="m 24.058914,9.5734727 c -7.74665,0 -14.020785,6.2262793 -14.020785,13.9005303 0,2.62721 0.733802,5.086308 2.013662,7.180959 l -2.5314964,7.453374 7.7601474,-2.46646 c 2.008754,1.10193 4.319374,1.730203 6.777244,1.730203 7.741742,0 14.015878,-6.22137 14.015878,-13.900531 0,-7.67425 -6.274136,-13.9005293 -14.015878,-13.9005293 m 0,25.5873813 c -2.396516,0 -4.626147,-0.709261 -6.485196,-1.931447 l -4.529207,1.438155 1.471287,-4.33778 c -1.408705,-1.926539 -2.243129,-4.294833 -2.243129,-6.854552 0,-6.442248 5.287551,-11.685624 11.786245,-11.685624 6.495014,0 11.782565,5.243376 11.782565,11.685624 0,6.447156 -5.287551,11.685624 -11.782565,11.685624 m 0,0"
     style="fill:#ffffff;fill-rule:evenodd"
     id="path21" />
  <path
     inkscape:connector-curvature="0"
     d="m 20.766619,17.732426 c -0.230695,-0.541148 -0.402488,-0.560782 -0.75221,-0.580415 -0.120255,-0.0049 -0.254009,-0.0098 -0.39267,-0.0098 -0.455252,0 -0.920321,0.133753 -1.202553,0.417211 -0.344814,0.349723 -1.202553,1.164514 -1.202553,2.841953 0,1.677438 1.227095,3.29843 1.400115,3.522989 0.17302,0.230693 2.406333,3.718097 5.871649,5.142754 2.708198,1.111748 3.513172,1.016034 4.131628,0.882281 0.89578,-0.196335 2.027161,-0.852831 2.31062,-1.649215 0.28714,-0.795158 0.28714,-1.476195 0.201243,-1.619766 -0.0859,-0.138662 -0.31659,-0.225785 -0.656496,-0.397578 -0.344813,-0.168112 -2.032068,-0.99272 -2.348659,-1.10684 -0.316591,-0.115347 -0.608639,-0.07731 -0.847923,0.254009 -0.334996,0.46016 -0.656496,0.930138 -0.925229,1.207461 -0.206152,0.220877 -0.541149,0.254009 -0.834425,0.128845 -0.379172,-0.158295 -1.447972,-0.532559 -2.760963,-1.692164 -1.020943,-0.900687 -1.711797,-2.018571 -1.913041,-2.358476 -0.201243,-0.339905 -0.01963,-0.541148 0.138662,-0.728894 0.17302,-0.21106 0.334997,-0.364447 0.508018,-0.560783 0.17302,-0.201244 0.268733,-0.306773 0.38408,-0.537467 0.115347,-0.225786 0.03804,-0.460161 -0.04785,-0.628273 -0.0859,-0.17302 -0.77675,-1.850459 -1.058983,-2.531496 m 0,0"
     style="fill:#ffffff;fill-rule:evenodd"
     id="path23" />
</svg>
